<svg width="33" height="38" viewBox="0 0 33 38" fill="none" xmlns="http://www.w3.org/2000/svg">
<path d="M16.5 0C12.0112 3.89563 6.37351 6.22045 0.443456 6.62116V18.5827C0.414605 22.3209 1.73515 25.9442 4.1623 28.7877C7.20548 32.3127 11.3533 35.2502 16.4998 37.6002C21.6347 35.2502 25.7823 32.3127 28.8373 28.7877C31.2646 25.9506 32.5892 22.3341 32.5679 18.6001V6.62116C26.6333 6.22407 20.9911 3.89899 16.4999 0L16.5 0ZM24.437 20.263C24.437 20.4188 24.3751 20.5681 24.2649 20.6785C24.1547 20.7886 24.0052 20.8505 23.8495 20.8505H18.65V26.0381C18.65 26.1939 18.5882 26.3434 18.478 26.4536C18.3678 26.5637 18.2183 26.6256 18.0625 26.6256H14.9606C14.6362 26.6256 14.3731 26.3626 14.3731 26.0381V20.8739H9.17371C8.84927 20.8739 8.58621 20.6108 8.58621 20.2864V17.1903C8.58621 16.8658 8.84927 16.6028 9.17371 16.6028H14.3495L14.3497 11.4033C14.3497 11.0789 14.6125 10.8158 14.9372 10.8158H18.0159H18.0156C18.1714 10.8158 18.3209 10.8777 18.4311 10.9879C18.5412 11.0983 18.6031 11.2476 18.6031 11.4033V16.5791H23.7789L23.7792 16.5794C23.9349 16.5794 24.0842 16.6413 24.1946 16.7514C24.3048 16.8616 24.3667 17.0111 24.3667 17.1669L24.437 20.263Z" fill="black"/>
</svg>
