<svg width="46" height="46" viewBox="0 0 46 46" fill="none" xmlns="http://www.w3.org/2000/svg">
<path d="M15.2939 29.8331C16.2032 32.7991 13.2204 34.0052 13.1851 33.9743C15.0782 34.8116 15.9704 35.3166 17.315 35.5245C17.5074 35.5541 17.7066 35.5753 17.9212 35.5942C20.2278 35.5854 21.0932 30.6693 21.1923 30.6347C21.1366 30.6812 21.8008 35.4931 20.5921 36.2809C28.8677 35.826 28.2167 31.9575 28.3428 30.5814C30.8328 31.1685 28.797 35.7646 28.8677 35.8259C28.8673 35.8259 31.5603 34.7051 32.588 33.1282C34.0361 30.9067 34.0964 30.3725 34.4558 28.6345C35.0951 28.4062 34.8016 33.2725 35.2872 32.2161C36.7627 29.0296 36.7376 28.8109 36.7229 27.0368C31.0522 28.9097 23.2545 28.6469 13.1756 26.3934C13.1546 26.3887 13.1411 26.3682 13.1453 26.347C13.1494 26.326 13.1695 26.3118 13.1907 26.3153C23.2663 27.9987 31.0466 27.7917 36.9766 25.5063C38.095 25.2206 44.8744 22.2573 44.7554 22.1341C44.1919 21.9841 42.5679 21.326 42.5679 21.326C40.7853 22.2266 38.6423 23.6486 36.4999 24.0021C36.486 22.9052 35.537 20.7352 34.3114 19.5667C34.3114 19.5667 35.4423 22.9803 34.6727 23.3741C34.5025 22.2884 32.7942 19.0766 26.881 19.4375C27.9592 21.0706 30.1743 23.5166 28.4242 25.0997C27.7234 24.5582 28.1826 19.0151 20.6089 19.7482C21.8417 20.4425 21.1422 24.387 21.2072 24.4484C21.1341 24.3799 20.2689 20.1752 17.915 19.7031C16.1936 19.3738 15.3188 19.5398 13.1581 19.5809C13.1939 19.6145 16.199 21.4154 15.2891 23.783C15.2319 23.7324 13.1915 19.6085 9.79051 19.6398C5.92392 19.6099 0.811524 23.4601 0.811524 23.4601C10.965 39.8446 15.2268 29.8396 15.2939 29.8338L15.2939 29.8331Z" fill="black"/>
</svg>
