<svg width="29" height="39" viewBox="0 0 29 39" fill="none" xmlns="http://www.w3.org/2000/svg">
<path d="M27.347 0.79126C19.2086 3.94759 15.5765 6.59622 10.9945 14.5511C10.9207 14.6926 10.845 14.8364 10.7766 14.9852C9.17575 15.2063 7.11552 15.7028 5.37979 16.068L0.837952 23.9344L5.81014 22.5899L7.83405 23.7585C6.07503 25.6285 5.00025 27.3 4.53904 29.2658C3.98558 31.6247 4.2868 34.2523 4.96559 38.0747C5.06133 38.5744 5.63642 38.9227 6.12375 38.7764C10.0864 37.5849 12.5499 36.5546 14.2479 34.8223C15.6522 33.3897 16.4108 31.5715 17.0648 29.0883L19.2491 30.3494L20.5706 35.3277L25.1246 27.4683L23.3978 22.2231C23.476 22.0978 23.5593 21.9747 23.6312 21.8475C28.1661 14.0001 29.0679 9.74636 27.3464 0.792473L27.347 0.79126ZM22.1117 9.88765C23.8471 10.8896 24.4483 13.1365 23.4458 14.8733C22.4432 16.61 20.1966 17.2127 18.4611 16.2108C16.7257 15.2088 16.1245 12.962 17.1271 11.2252C18.1296 9.4884 20.3762 8.88575 22.1117 9.88765ZM21.1991 11.4685C20.3174 10.9593 19.2162 11.2548 18.707 12.1371C18.1975 13.0195 18.4923 14.1206 19.374 14.6299C20.2558 15.1391 21.357 14.8436 21.8662 13.9613C22.3757 13.0789 22.0809 11.9778 21.1991 11.4685ZM17.2956 18.1724C17.5234 19.3085 17.7301 20.2669 17.9509 21.2841C16.7021 23.8912 15.4947 26.5188 14.2719 29.1385C14.6196 28.9852 14.9644 28.8262 15.3031 28.6636C14.6924 30.9566 14.034 32.4338 12.9465 33.5436C11.7642 34.7497 9.7384 35.6652 6.61512 36.6723C6.1135 33.6022 5.91248 31.3692 6.30881 29.6786C6.69719 28.0224 7.59546 26.6152 9.36206 24.7894C9.37446 25.2544 9.38432 25.7185 9.412 26.1848C11.0399 23.8377 12.6402 21.4715 14.2752 19.1295C15.3761 18.7843 16.2186 18.5086 17.2957 18.173L17.2956 18.1724ZM16.5987 19.3509L14.8477 19.9043L7.70964 30.2734L8.29873 33.5281L11.6586 32.5534L16.9932 21.1762L16.5987 19.3509Z" fill="black"/>
</svg>
