<svg width="32" height="31" viewBox="0 0 32 31" fill="none" xmlns="http://www.w3.org/2000/svg">
<path d="M15.1059 7.04021C13.5632 6.64324 12.4234 5.24308 12.4234 3.57651C12.4234 1.60121 14.0246 0 15.9999 0C17.9752 0 19.5764 1.60121 19.5764 3.57651C19.5764 5.24302 18.4367 6.64321 16.894 7.04021V29.5058C16.894 29.9995 16.4938 30.3998 15.9999 30.3998C15.5061 30.3998 15.1059 29.9995 15.1059 29.5058V7.04021ZM13.3177 15.1999C13.8113 15.1999 14.2117 15.6002 14.2117 16.0939C14.2117 16.5878 13.8114 16.9882 13.3177 16.9882C12.577 16.9882 11.9764 17.5887 11.9764 18.3294C11.9764 19.0701 12.577 19.6704 13.3177 19.6704C13.8113 19.6704 14.2117 20.0708 14.2117 20.5647C14.2117 21.0586 13.8114 21.4587 13.3177 21.4587C11.5892 21.4587 10.1882 20.0576 10.1882 18.3294C10.1882 16.601 11.5893 15.1999 13.3177 15.1999V15.1999ZM18.6822 25.4821C18.1885 25.4821 17.7882 25.082 17.7882 24.5881C17.7882 24.0942 18.1885 23.6939 18.6822 23.6939C19.4229 23.6939 20.0234 23.0935 20.0234 22.3528C20.0234 21.6122 19.4229 21.0116 18.6822 21.0116C18.1885 21.0116 17.7882 20.6113 17.7882 20.1176C17.7882 19.6237 18.1885 19.2233 18.6822 19.2233C20.4107 19.2233 21.8117 20.6244 21.8117 22.3528C21.8117 24.081 20.4106 25.4821 18.6822 25.4821V25.4821ZM13.3177 23.2469C13.8113 23.2469 14.2117 23.6472 14.2117 24.1411C14.2117 24.6348 13.8114 25.0352 13.3177 25.0352C12.577 25.0352 11.9764 25.6357 11.9764 26.3764C11.9764 27.1171 12.577 27.7176 13.3177 27.7176C13.8113 27.7176 14.2117 28.1178 14.2117 28.6117C14.2117 29.1056 13.8114 29.5059 13.3177 29.5059C11.5892 29.5059 10.1882 28.1047 10.1882 26.3765C10.1882 24.648 11.5893 23.247 13.3177 23.247V23.2469ZM13.3177 14.2843C10.4261 14.99 7.94253 14.9875 5.86697 14.2548C3.05833 13.2635 1.3371 11.5422 0.819862 9.12842C0.674816 8.45175 1.32031 7.87414 1.9768 8.09297C4.2568 8.85297 6.2151 8.92039 7.87332 8.32347C9.07797 7.88961 10.2229 7.17756 11.309 6.18065C11.7787 7.02588 12.4719 7.73545 13.3174 8.2238L13.3177 14.2843ZM20.6908 6.18108C21.7765 7.17771 22.9216 7.88999 24.126 8.32368C25.7845 8.92061 27.7426 8.85318 30.0225 8.09318C30.6791 7.87434 31.3245 8.45198 31.1795 9.12863C30.6623 11.5424 28.9408 13.2637 26.1322 14.255C24.0568 14.9875 21.5734 14.9902 18.682 14.2847V8.22427C19.5274 7.73591 20.2204 7.02662 20.6903 6.18134L20.6908 6.18108Z" fill="#FFA927"/>
</svg>
