<svg width="33" height="39" viewBox="0 0 33 39" fill="none" xmlns="http://www.w3.org/2000/svg">
<path d="M19.6688 15.9871L25.9259 19.5997C26.2702 19.7984 26.3889 20.2387 26.1896 20.5838C26.1307 20.6858 26.0508 20.7681 25.9577 20.8278L9.13839 34.1197C8.82785 34.3658 8.37719 34.3127 8.13135 34.0023C7.94384 33.7655 7.93006 33.4459 8.07269 33.1988L13.8311 23.2184L7.57405 19.6058C7.22979 19.4071 7.11109 18.9668 7.31035 18.6217C7.36924 18.5197 7.44922 18.4374 7.54224 18.3777L24.3609 5.08689C24.6715 4.8408 25.1221 4.89396 25.368 5.20436C25.5555 5.44108 25.5693 5.76074 25.4266 6.00778L19.6688 15.9871Z" fill="#FFA927"/>
</svg>
