<svg width="30" height="25" viewBox="0 0 30 25" fill="none" xmlns="http://www.w3.org/2000/svg">
<path d="M28.1899 2.92753C25.8935 2.86023 21.5963 3.10431 18.2632 5.45293V5.45514C19.2924 6.97732 19.9816 8.70316 20.2842 10.5155C20.6309 10.102 21.0033 9.71106 21.3997 9.34504C21.5524 9.20261 21.7832 9.18493 21.956 9.30225C22.1285 9.41977 22.1968 9.64115 22.1205 9.83541C20.1831 14.6888 20.123 19.7251 20.123 19.7251C21.3852 20.184 27.2201 18.6039 26.9471 13.078C26.7351 8.78308 28.0202 5.81832 28.9373 4.27804V4.27824C29.0994 4.00522 29.1046 3.6665 28.951 3.38868C28.7973 3.11065 28.5078 2.93506 28.1902 2.92743L28.1899 2.92753Z" fill="#FFA927"/>
<path d="M16.3207 16.9082C17.7884 15.0264 19.3898 11.4763 16.296 6.73919C12.5626 1.02239 5.09383 0.621757 1.80343 0.747757C1.48602 0.758203 1.19796 0.936397 1.04666 1.21564C0.895389 1.49508 0.903627 1.8336 1.06816 2.1052C2.10958 3.7971 3.66813 7.21288 3.41983 12.2346C3.11046 18.4903 9.7188 20.279 11.1475 19.7591C11.1475 19.7591 11.0766 13.8957 8.79021 8.3296C8.71246 8.13755 8.77675 7.91717 8.9459 7.79721C9.11485 7.67728 9.34427 7.68933 9.49978 7.82634C11.2222 9.35053 13.9982 12.6323 14.8185 18.4232C15.0044 19.6991 15.0618 20.9904 14.9901 22.2777C14.968 22.7462 15.1389 23.2032 15.4634 23.5419C15.7876 23.8808 16.2366 24.0719 16.7057 24.0703C17.2789 24.0703 17.8142 23.7844 18.1333 23.3081C18.4521 22.8318 18.5125 22.2277 18.2942 21.6978L16.3207 16.9082Z" fill="#FFA927"/>
</svg>
