<svg id="Layer_3" data-name="Layer_3" fill="#fff" xmlns="http://www.w3.org/2000/svg" viewBox="0 0 956 1038">
    <path d="M706,1039c-12.41-3.46-16.24-15.24-22.87-24.09-12.76-17.06-26.5-33.21-42.86-46.84-12.2-10.15-24.89-19.8-38-28.71a233.84,233.84,0,0,0-57.06-28.29c-17.6-5.89-35.46-11.13-53.48-15.56-12.77-3.14-26-4.37-39-6.6-12.83-2.2-25.66-4.47-38.44-7-12.95-2.51-25.89-5.1-38.73-8.07-13.82-3.2-27.56-6.73-41.26-10.39-10.65-2.85-21.16-6.18-31.77-9.18a48.42,48.42,0,0,1-24.87-16.08c-7.16-8.76-16.53-14.42-25.88-20.27-7.2-4.5-14.6-8.76-21.33-13.9-14.21-10.85-24.74-24.34-29.6-42.06-4.66-17-10.72-33.53-15.32-50.5-5.68-21-11.06-42.08-15.45-63.36-2.42-11.71-9.48-20.27-15.76-29.53-4.12-6.09-8.76-11.84-13-17.89-14.11-20.38-28.35-40.68-42.08-61.31-10.07-15.12-20.12-30.34-28.91-46.22-8.29-15-9.9-31.76-5.84-48.24,4.36-17.69,10-35.13,16-52.34,2.51-7.15-1.75-11.27-4.26-16.23-13.66-27-27.81-53.75-41.33-80.81-8-16-15.4-32.34-22.58-48.74C8,237.11,4.74,227,1,217v-5c3.64-12.47,13.94-17.47,24.84-20.86,26.14-8.12,49-.29,69.23,16.48,11.08,9.19,21.19,19.54,31.89,29.51,2-4,4.6-9,7-14.08a440.27,440.27,0,0,1,40.49-70.3,214.46,214.46,0,0,1,18.93-22.42c5.08-5.38,13.23-5.84,20.14-2.7a8,8,0,0,0,5.83.34c24.05-10.76,44.28-4.08,62.36,13.2,2.46,2.35,6.42,3.82,7.68,6.61,2.15,4.74,3.61,9.48,9.2,11.18,3,14.08,13.1,23.92,21.46,34.62,16.52,21.16,36,39.58,55.79,57.61a1102.6,1102.6,0,0,0,91.75,74.19c29.75,21.72,60.43,42.19,91,62.75,5.17,3.47,11.86,4.77,17.95,6.77A368.61,368.61,0,0,1,636.2,421a387.56,387.56,0,0,1,74.6,52.06,371.77,371.77,0,0,1,82.06,104.24c8.25,15.35,15.93,31,24.9,45.94,9.74,16.19,20.13,32,31.23,47.33a357.28,357.28,0,0,0,47,53.07c15,13.86,31.12,26.33,49.6,35.3,6.94,3.37,10.18,8.88,11.45,16v2c-1.31,5.92-3.74,11-9.46,14-6.88,3.6-13.67,2.6-19.78-1.27-13.23-8.37-26.88-16.32-39-26.11-13.67-11-26.26-23.48-38.57-36.05-9.15-9.35-17.09-19.87-26-30.38a53.87,53.87,0,0,0-1.14,6.9A107,107,0,0,1,810,751.34c-14.72,27.48-35.27,49.88-60.61,67.75a178.57,178.57,0,0,1-28.63,16.09c-6.8,3.11-16.34-2.43-19.46-9.69-3.35-7.8-.19-18.81,6.76-22.39a169.38,169.38,0,0,0,57.32-47.84c10.65-13.81,19.16-28.59,22.22-46.06,2.46-14.06,1.63-28.09-.64-42a228.64,228.64,0,0,0-17.29-56.47,314.69,314.69,0,0,0-36.3-61.39c-28-37-62.21-67.11-102.08-90.67-21.87-12.92-44.71-24.18-69.18-31.19-17.21-4.93-31.32-14.85-45.68-24.56-19.29-13-38.77-25.88-57.3-39.94-30.72-23.31-61.16-47-90.95-71.52-26.85-22.07-51.84-46.29-73.81-73.29-10.34-12.7-18.93-26.82-28.3-40.3-5.26-7.56-10.73-14.89-20.19-19,3.08,5.84,5.87,11.09,8.62,16.36,5.49,10.53,8.07,21.88,9.45,33.56,3.11,26.19-3.69,50.36-15,73.62-1,2.08-2,4.18-3.19,6.16-2.68,4.48,1.21,7.46,3,10.17,11.19,16.74,26.1,29.53,43.66,39.28,3.44,1.91,7.21,3.38,10.25,5.79,3.62,2.86,7.86,6,9.65,9.93,6.6,14.71,15.92,27.53,25.85,40,.76,1,2.9,1.41,4.27,1.2,7-1.07,14.15-1.84,20.92-3.82,14.94-4.36,28.55-1.31,42,5.45a268.16,268.16,0,0,1,70.53,51.23c2,2,5.36,3.22,8.29,3.85A216.64,216.64,0,0,1,530,467.08c10.16,4.73,13.66,14.16,9.66,25-11,29.69-32.58,48-61.49,59.19-25.55,9.86-52.06,10.5-78.82,9.49-3.07-.12-4.41.6-6,3.42-8.21,15-16.95,29.7-25.16,44.69-1,1.87-.61,5.06.16,7.28,4.17,12.07,8.66,24,13.29,36.73,8.4,0,18-.52,27.56.13,13.12.89,25.25,5.78,37.28,10.77a6,6,0,0,0,4.78-.12,304.14,304.14,0,0,1,53.5-27.48c15.88-6.29,32.2-11.47,47.62-16.9C544.28,612,535,604.48,526.72,596A205.25,205.25,0,0,1,508,573.13c-5.57-7.65-3-18.39,4.9-23.93,7.5-5.23,18.17-3.92,23.58,3.62a159.72,159.72,0,0,0,35.14,35.62,139.72,139.72,0,0,0,43.29,21.69,14.48,14.48,0,0,0,4.46.13c26.13-.78,52,1,77.38,7.68,6,1.6,12.12,3.13,18.09,5,8.71,2.71,14,12.08,11.89,20.58-2.22,8.92-11.28,15-20.39,13.11-9.82-2.06-19.45-5.11-29.29-7-8.73-1.7-17.62-2.69-26.49-3.55a177.6,177.6,0,0,0-21.37-1,298,298,0,0,0-59.43,7.3c-32.87,7.51-63.47,20.51-92.81,36.8l-.43.24c-5.57,3.15-9.1,6.09-8,14.36A101.23,101.23,0,0,1,464,749.92c-3.55,10.35-12.84,13.61-19.47,12.71-9.43-1.28-16.41-10-15.3-18.94.56-4.53,2.37-8.9,3.36-13.4a63.93,63.93,0,0,0-.45-31.09c-.48-1.75-2.48-3.55-4.23-4.41a80.57,80.57,0,0,0-30.9-8,48.25,48.25,0,0,0-7.49.17c-8.72.79-8.88,1-10.64,9.51-2.64,12.81-11,19.2-22.37,16.88-11.51-2.36-15.73-12.47-13-21.29,8.26-26.54-.47-49.7-13.26-72.14-4.55-8-4.66-16.5,1.93-23.28,10.65-11,17.25-24.36,24.06-37.65,4.28-8.35,8-17,12-25.47,2.7-5.69,12-10.37,18.31-9.42,24.16,3.64,48.25,3.44,71.81-3.39,16.41-4.76,31-13,41.81-28-8.91-2.56-17.49-5.46-26.26-7.43q-18.31-4.11-36.88-7c-10-1.55-20.06-2.22-30.11-3.22-6.94-.69-13.9-1.16-20.83-2a24.72,24.72,0,0,0-16.94,4.15c-23.23,15.24-46.68,30.16-69.63,45.81-14.9,10.17-29.06,21.44-43.58,32.17-5.06,3.74-7.11,8.35-6.29,14.85,1.49,11.82,1.92,23.77,3.4,35.59,1.66,13.28,3.66,26.53,6.1,39.68,2.95,15.87,6.33,31.67,9.87,47.42s7.26,31.52,11.34,47.16c5,19.27,10.28,38.49,15.92,57.59a67,67,0,0,0,7.91,17.29c4.29,6.61,12.35,7.13,19.17,9.17,13.38,4,26.85,7.78,40.43,11.08,16.49,4,33.08,7.59,49.69,11,12.42,2.59,24.93,4.8,37.43,7,14.15,2.46,28.39,4.4,42.49,7.1,11.3,2.16,22.41,5.32,33.68,7.67,8.23,1.72,16.53,3.46,24.88,4.15,22.9,1.89,45.37-1.7,67.74-6.2,8.07-1.62,16.16,1.56,19.75,10.3,3.45,8.41.86,17.05-7.27,21.8-4.36,2.54-10,2.92-15.05,4.21-1.58.4-3.21.58-5.67,1,7.68,5,14.72,9.39,21.51,14.09,21.16,14.66,40.72,31.27,57.37,50.89,11.46,13.51,21.9,27.92,32.19,42.35,7.88,11.05,3,23.54-10.08,27.64a5.94,5.94,0,0,0-1.45,1ZM184.91,442.14c-2.15-4-4.33-8.82-7.13-13.21-5.44-8.55-5-16.62-.42-25.59A150.92,150.92,0,0,0,187.8,376.8c3.83-13.08,6.91-26.41,9.7-39.76,2.3-11,3.58-22.17,5.56-33.22,1.16-6.45,1.9-13.2,4.41-19.13,4.28-10.1,10.43-19.41,14.7-29.52,10.55-25,10.61-49.72-4.13-73.37-3-4.85-6.86-9.18-11.16-14.86-8.53,13.69-16.2,25.74-23.58,38-3.75,6.21-7.22,12.61-10.37,19.14-6.48,13.48-12.9,27-18.82,40.74-1.84,4.27-.92,9.86-3.12,13.81-4.62,8.28-4.9,17.61-7.8,26.27-4.26,12.76-7.13,26-10.92,38.92-4.21,14.36-8.76,28.62-13.22,42.9-5.74,18.36-11.62,36.69-17.28,55.08a91.25,91.25,0,0,0-3.67,15.34C96.61,469,102,478.84,108.26,488.35c9.66,14.58,19.13,29.29,28.77,43.89,3.54,5.36,7.34,10.55,11,15.82-.64-7.09-2-13.69-3-20.36-1.49-10.1-3.35-20.2-3.87-30.36-.82-16,6.13-29.37,18.07-39.38C166.63,451.75,175.8,447.64,184.91,442.14Zm222.88-3,.78-.61c-6.74-3.53-13.41-7.18-20.24-10.53-3.19-1.57-6.92-4-10-3.52-16.08,2.6-32.09,5.77-48,9.25-10.29,2.25-20.43,5.2-30.55,8.15-15.93,4.65-32,9-47.63,14.5-20.19,7-40,15.08-60.05,22.54-13.43,5-18.46,14.06-15.54,28,2,9.68,3.72,19.42,5.56,29.14.92,4.85,1.71,9.73,2.79,14.55.82,3.64,2.26,7.14,3,10.79,1.47,7.61,2.38,15.34,4,22.93q4.77,23,10,45.9c3.73,16.38,7.46,32.77,11.61,49,3.87,15.15,8,30.26,12.56,45.21,3.85,12.56,8.22,25,13,37.22,1.47,3.77,6.33,6.39,7.33,10.15,1.29,4.88,4,3.51,7,3.85-1.49-5.51-3-10.56-4.21-15.67-5.54-23.08-11.32-46.1-16.39-69.28-4.33-19.8-8.45-39.69-11.51-59.71s-4.93-40.06-6.8-60.15c-1.54-16.55,3.67-31,17-41.24,19.9-15.27,40-30.31,60.59-44.61,19-13.18,38.62-25.46,58.22-37.71,7.08-4.43,14.51-9.1,23.25-9.15C384.93,438.08,396.36,438.77,407.79,439.14ZM300.51,404.31c-5.84-9.91-11.65-19.94-17.68-29.82-.94-1.54-2.81-2.68-4.47-3.61-14.36-8-27.7-17.4-39.35-29.07-1.64-1.64-3.51-3-5.31-4.6-1.28,5.73-2.53,10.85-3.57,16-4.08,20.18-9.43,40-17.67,58.91a7.64,7.64,0,0,0-.35,5.48c2,4.39,4.52,8.51,6.59,12.28ZM95.79,339.75c1.16-1.4,1.49-1.62,1.57-1.91,5.08-18.37,10.19-36.74,15.11-55.15a5.82,5.82,0,0,0-1.14-4.39C101.93,266.39,93,254,82.7,242.93c-7.65-8.24-17.11-14.89-28.22-18.21-4.23-1.26-8.7-3-14.41-.29Z"/>
    <path d="M271,1c12.25,4.89,15.86,14.11,11.22,26.79-6.52,17.83-12.54,35.84-18.83,53.75-4,11.36-14.57,13.19-23.51,10.25-7.81-2.57-12.3-13.69-9.32-22.23,6.69-19.18,13.56-38.29,20.16-57.5C252.82,5.93,257.6,3.24,263,1Z"/>
    <path d="M145,127.47c.61,8.14-3.08,13.56-9.93,16.36-6.06,2.48-12.48,2.19-18-1.84-18.75-13.78-37.36-27.74-56-41.61-5.37-4-11.08-7.58-16.17-11.89-9-7.61-8.73-17.16-3.07-25.52,1.42-2.1,4.88-2.84,7.42-4.16,6.22-3.21,11.44-2,16.9,2.69,4,3.43,9.07,5.66,13.4,8.8,16.08,11.65,32.06,23.44,48.05,35.2,4.09,3,8.26,5.93,12.11,9.22S145.73,122.46,145,127.47Z"/>
    <path d="M137.73,22.93A18.12,18.12,0,0,1,151.61,6.6c7.43-1.79,15.78,1.56,18.83,8.63,5.17,11.94,9.74,24.14,14.41,36.3,4.54,11.84,8.77,23.81,13.35,35.64,3.93,10.17.48,19.16-9.3,23.37-8.89,3.84-18.58.2-22.43-9.3-7.11-17.55-13.69-35.32-20.45-53-2.29-6-4.52-12-6.61-18.11A69.65,69.65,0,0,1,137.73,22.93Z"/>
</svg>