<svg id="layer_04" data-name="layer_04" fill="#fff" xmlns="http://www.w3.org/2000/svg" viewBox="0 0 444 512">
    <path d="M0,290.1C0,411.52,97.61,510.41,219,512s221.53-94.74,224.65-216.12S351.75,73.14,230.43,68.47V51.19h17.06a25.6,25.6,0,1,0,0-51.19H196.3a25.6,25.6,0,1,0,0,51.19h17.06V68.47C94.32,73.18.2,171,0,290.1ZM187.76,25.6a8.53,8.53,0,0,1,8.54-8.53h51.19a8.53,8.53,0,1,1,0,17.06H196.3a8.53,8.53,0,0,1-8.54-8.53ZM426.67,290.1c0,113.1-91.68,204.78-204.78,204.78S17.11,403.2,17.11,290.1,108.8,85.32,221.89,85.32,426.54,177.06,426.67,290.1Zm0,0"/>
    <path d="M315.3,127.39a187,187,0,0,0-186.86,0c-.14.07-.3.07-.44.14s-.22.22-.35.31A189.08,189.08,0,0,0,59.59,195.9c-.09.14-.22.21-.3.35a4.22,4.22,0,0,0-.15.45,187,187,0,0,0,0,186.86c.07.14.07.3.15.44s.29.35.42.54a189.09,189.09,0,0,0,67.94,67.87c.14.09.22.22.35.31s.43.16.65.27a187,187,0,0,0,186.42,0c.21-.11.45-.15.65-.27s.22-.22.35-.31A189.11,189.11,0,0,0,384,384.5c.13-.19.3-.34.42-.54s.08-.3.15-.44a187,187,0,0,0,0-186.86c-.07-.14-.07-.3-.15-.44s-.22-.21-.3-.34a189,189,0,0,0-68.06-68.06c-.14-.09-.21-.22-.35-.31s-.26,0-.41-.11Zm49.77,70.19-7,4.07a8.53,8.53,0,1,0,8.53,14.78l7.06-4.08a169.34,169.34,0,0,1,18.49,69.21H366.94a8.53,8.53,0,0,0,0,17.07h25.16a169.36,169.36,0,0,1-18.49,69.21l-7.06-4.08A8.53,8.53,0,1,0,358,378.55l7,4.07a171.7,171.7,0,0,1-50.66,50.66l-4.07-7.05a8.53,8.53,0,1,0-14.78,8.54l4.08,7.06a169.37,169.37,0,0,1-69.22,18.49V435.16a8.53,8.53,0,0,0-17.07,0v25.16a169.34,169.34,0,0,1-69.21-18.49l4.08-7.06a8.53,8.53,0,1,0-14.78-8.54l-4.07,7.05a171.66,171.66,0,0,1-50.66-50.66l7-4.07a8.53,8.53,0,1,0-8.53-14.78l-7.06,4.08a169.32,169.32,0,0,1-18.49-69.21H76.84a8.53,8.53,0,0,0,0-17.07H51.68a169.29,169.29,0,0,1,18.49-69.21l7.06,4.08a8.53,8.53,0,1,0,8.53-14.78l-7-4.07a171.72,171.72,0,0,1,50.66-50.67l4.07,7.05a8.53,8.53,0,1,0,14.78-8.54l-4.08-7.05a169.28,169.28,0,0,1,69.21-18.49v25.16a8.53,8.53,0,1,0,17.07,0V119.89a169.31,169.31,0,0,1,69.22,18.49l-4.08,7.05A8.53,8.53,0,1,0,310.34,154l4.07-7.05a171.77,171.77,0,0,1,50.66,50.67Zm0,0"/>
    <path d="M230.43,266.07V179.18a8.53,8.53,0,0,0-17.07,0v86.89a25.59,25.59,0,1,0,17.07,0Zm-8.53,32.57a8.53,8.53,0,1,1,8.53-8.54,8.53,8.53,0,0,1-8.53,8.54Zm0,0"/>
</svg>