<svg id="Layer_1" data-name="Layer 1" fill="#fff" xmlns="http://www.w3.org/2000/svg" viewBox="0 0 512 512">
    <path d="M293.71,152.68A12.08,12.08,0,0,0,287,137a155.59,155.59,0,0,0-57.78-11c-86.47,0-156.82,70.34-156.82,156.8s70.35,156.8,156.82,156.8S386,369.24,386,282.78A156.15,156.15,0,0,0,375,225.12,12.08,12.08,0,1,0,352.57,234a132.05,132.05,0,0,1,9.25,48.77c0,73.14-59.5,132.64-132.64,132.64S96.51,355.92,96.51,282.78,156,150.13,229.17,150.13A131.55,131.55,0,0,1,278,159.44,12.08,12.08,0,0,0,293.71,152.68Z"/>
    <path d="M434.57,211.32a12.08,12.08,0,0,0-8.29,14.94,205.43,205.43,0,0,1,7.89,56.52c0,113-92,205-205,205s-205-92-205-205,92-205,205-205a205.1,205.1,0,0,1,56.62,7.93,12.08,12.08,0,1,0,6.67-23.22,229.21,229.21,0,0,0-63.28-8.87C102.81,53.61,0,156.41,0,282.78S102.81,511.95,229.17,511.95,458.33,409.14,458.33,282.78a229.58,229.58,0,0,0-8.82-63.17A12.08,12.08,0,0,0,434.57,211.32Z"/>
    <path d="M229.17,222.49c1.86,0,3.67.08,5.41.24a12.08,12.08,0,0,0,2.22-24.06c-2.46-.23-5-.34-7.62-.34a84.44,84.44,0,1,0,84.43,84.45c0-2.46-.11-4.94-.33-7.37a12.08,12.08,0,1,0-24.06,2.15c.15,1.72.23,3.48.23,5.23a60.28,60.28,0,1,1-60.27-60.29Z"/>
    <path d="M510.15,81.26a24.09,24.09,0,0,0-22.33-14.92H445.7V24.23A24.16,24.16,0,0,0,404.46,7.14L334.09,77.52a36,36,0,0,0-10.61,25.62v68.36l-98.17,98.17a12.08,12.08,0,1,0,17.08,17.08l98.17-98.17h68.36A36,36,0,0,0,434.53,178l70.38-70.38A24.08,24.08,0,0,0,510.15,81.26Zm-159,13.34,70.38-70.37V73.42l-73.91,73.91v-44.2A12,12,0,0,1,351.17,94.6Zm66.28,66.28a12.16,12.16,0,0,1-8.54,3.53h-44.2l73.91-73.91h49.19Z"/>
</svg>