<svg width="166" height="166" viewBox="0 0 166 166" fill="none" xmlns="http://www.w3.org/2000/svg">
<path opacity="0.4" d="M158 83C158 92.8491 156.06 102.602 152.291 111.701C148.522 120.801 142.997 129.069 136.033 136.033C129.069 142.997 120.801 148.522 111.701 152.291C102.602 156.06 92.8491 158 83 158C73.1509 158 63.3982 156.06 54.2987 152.291C45.1993 148.522 36.9314 142.997 29.967 136.033C23.0026 129.069 17.4781 120.801 13.709 111.701C9.93993 102.602 8 92.8491 8 83C8 73.1509 9.93993 63.3982 13.709 54.2987C17.4781 45.1993 23.0026 36.9314 29.967 29.967C36.9314 23.0026 45.1993 17.4781 54.2988 13.709C63.3982 9.93993 73.1509 8 83 8C92.8492 8 102.602 9.93993 111.701 13.709C120.801 17.4781 129.069 23.0026 136.033 29.967C142.997 36.9314 148.522 45.1993 152.291 54.2988C156.06 63.3982 158 73.1509 158 83L158 83Z" stroke="#DC3030" stroke-width="10" stroke-linecap="round" stroke-linejoin="round"/>
<path d="M70.1646 15.7133C87.2788 12.4486 104.994 15.828 119.704 25.1635C134.415 34.4991 145.015 49.0894 149.348 65.9648C150.241 69.4418 153.783 71.5368 157.26 70.6441C160.738 69.7513 162.833 66.2089 161.94 62.7318C156.785 42.6538 144.172 25.2946 126.67 14.1873C109.168 3.07998 88.0908 -0.940681 67.7287 2.9436C47.3666 6.82788 29.2497 18.3252 17.0654 35.0955C4.881 51.8658 -0.45517 72.6488 2.1429 93.2147C4.74096 113.78 15.078 132.584 31.0502 145.797C47.0224 159.01 67.4293 165.641 88.1177 164.339C108.806 163.038 128.221 153.902 142.411 138.791C156.601 123.68 164.5 103.729 164.5 83C164.5 79.4102 161.59 76.5 158 76.5C154.41 76.5 151.5 79.4102 151.5 83C151.5 100.423 144.861 117.191 132.935 129.891C121.008 142.592 104.69 150.271 87.3014 151.365C69.913 152.459 52.7612 146.886 39.3367 135.78C25.9122 124.674 17.224 108.871 15.0404 91.5853C12.8567 74.2999 17.3417 56.832 27.5826 42.7367C37.8234 28.6414 53.0505 18.978 70.1646 15.7133Z" fill="#59C112" stroke="white" stroke-width="3" stroke-linecap="round" stroke-linejoin="round"/>
</svg>
