<svg width="39" height="38" viewBox="0 0 39 38" fill="none" xmlns="http://www.w3.org/2000/svg">
<path d="M19.25 28.463C9.17229 28.3699 1 19.0001 1 19.0001C1 19.0001 9.17229 9.63017 19.25 9.53711C29.3277 9.63017 37.5 19.0001 37.5 19.0001C37.5 19.0001 29.3277 28.3699 19.25 28.463Z" stroke="#3077E0" stroke-width="2" stroke-miterlimit="10" stroke-linecap="round" stroke-linejoin="round"/>
<path d="M37.4999 5.48158V1.42603H33.4443" stroke="#3077E0" stroke-width="2" stroke-miterlimit="10" stroke-linecap="round" stroke-linejoin="round"/>
<path d="M1 5.48158V1.42603H6.40741" stroke="#3077E0" stroke-width="2" stroke-miterlimit="10" stroke-linecap="round" stroke-linejoin="round"/>
<path d="M37.4999 32.5186V36.5741H33.4443" stroke="#3077E0" stroke-width="2" stroke-miterlimit="10" stroke-linecap="round" stroke-linejoin="round"/>
<path d="M1 32.5186V36.5741H6.40741" stroke="#3077E0" stroke-width="2" stroke-miterlimit="10" stroke-linecap="round" stroke-linejoin="round"/>
<path d="M22.6297 19.0001C22.6297 16.7603 21.1166 14.9446 19.2501 14.9446C17.3836 14.9446 15.8705 16.7603 15.8705 19.0001C15.8705 21.2399 17.3836 23.0557 19.2501 23.0557C21.1166 23.0557 22.6297 21.2399 22.6297 19.0001Z" stroke="#3077E0" stroke-width="2" stroke-miterlimit="10" stroke-linecap="round" stroke-linejoin="round"/>
<path d="M28.037 19.0001C28.037 13.7738 24.1029 9.53711 19.2499 9.53711C14.397 9.53711 10.4629 13.7738 10.4629 19.0001C10.4629 24.2263 14.397 28.463 19.2499 28.463C24.1029 28.463 28.037 24.2263 28.037 19.0001Z" stroke="#3077E0" stroke-width="2" stroke-miterlimit="10" stroke-linecap="round" stroke-linejoin="round"/>
</svg>
