<svg width="81" height="80" viewBox="0 0 81 80" fill="none" xmlns="http://www.w3.org/2000/svg">
<path d="M8.18221 42.1955C7.01874 42.2847 6.3969 41.6181 6.09908 41.1213C6.52598 41.0456 6.90986 41.0904 7.24522 41.2549C7.68996 41.4731 7.99339 41.8676 8.18221 42.1955Z" fill="#28A100"/>
<path d="M9.39707 36.9448C9.00421 37.4179 8.53827 38.2959 9.08054 39.4528C9.34256 39.1473 9.63852 38.6936 9.69576 38.1587C9.73879 37.7566 9.63852 37.3499 9.39707 36.9448Z" fill="#28A100"/>
<path d="M12.0631 41.1213C11.7653 41.618 11.1448 42.284 9.98 42.1955C10.1689 41.8675 10.4724 41.4731 10.917 41.255C11.2522 41.0902 11.6362 41.0457 12.0631 41.1213Z" fill="#28A100"/>
<path d="M73.7004 37.8044C74.8639 37.7153 75.4858 38.3819 75.7836 38.8787C75.3566 38.9543 74.9728 38.9097 74.6374 38.745C74.1927 38.5267 73.8893 38.1322 73.7004 37.8044Z" fill="#28A100"/>
<path d="M72.4855 43.0553C72.8783 42.5823 73.3443 41.7042 72.802 40.5472C72.54 40.8528 72.244 41.3064 72.1868 41.8414C72.1439 42.2435 72.2441 42.6501 72.4855 43.0553Z" fill="#28A100"/>
<path d="M69.8196 38.8788C70.1174 38.382 70.7378 37.716 71.9027 37.8045C71.7137 38.1326 71.4103 38.5269 70.9657 38.7451C70.6303 38.9098 70.2464 38.9543 69.8196 38.8788Z" fill="#28A100"/>
<path d="M16.3022 20.1779C17.2731 20.9595 17.5053 21.3749 17.2286 21.7186C16.9569 22.0564 16.3807 21.8709 15.5062 21.167C14.5593 20.4049 14.3129 19.958 14.5895 19.6143C14.876 19.2584 15.3313 19.3964 16.3022 20.1779Z" fill="#28A100"/>
<path d="M20.6262 18.1419C20.9551 17.8476 20.7935 17.4001 19.9624 16.4712C19.1311 15.5425 18.7042 15.3323 18.3639 15.6369C18.035 15.9312 18.2057 16.4123 19.0163 17.3179C19.7648 18.1544 20.3032 18.4312 20.6262 18.1419Z" fill="#28A100"/>
<path d="M23.2813 12.3407C23.4453 12.6303 23.3588 12.9019 23.0623 13.0696C22.7861 13.226 22.4886 13.172 22.3246 12.8823C22.1721 12.6127 22.2615 12.3308 22.5512 12.1668C22.8409 12.0028 23.1288 12.0711 23.2813 12.3407Z" fill="#28A100"/>
<path d="M27.7355 12.9326C27.8995 13.2224 27.813 13.4937 27.5165 13.6615C27.2404 13.8179 26.943 13.764 26.7789 13.4743C26.6263 13.2048 26.7157 12.9228 27.0055 12.7588C27.2952 12.5948 27.583 12.6632 27.7355 12.9326Z" fill="#28A100"/>
<path d="M40.8739 9.21436L41.5265 7.69859L42.0888 9.24706L40.8739 9.21436Z" fill="#28A100"/>
<path d="M59.2776 12.9376L58.5866 13.9187L58.9537 14.1772C59.4156 14.5026 59.764 14.4923 60.0045 14.1505C60.2319 13.8278 60.1408 13.5268 59.7294 13.2371C59.7253 13.2341 59.7148 13.2272 59.6981 13.2162L59.6673 13.1961L59.58 13.1386L59.5034 13.0882C59.441 13.0469 59.3657 12.9968 59.2776 12.9376Z" fill="#28A100"/>
<path d="M63.0677 18.6328L64.6036 18.0286L63.9002 19.5184L63.0677 18.6328Z" fill="#28A100"/>
<path d="M15.6613 61.1686C15.9355 61.5143 16.3919 61.3798 17.3685 60.6053C18.3452 59.8308 18.5803 59.4171 18.2964 59.0593C18.0222 58.7136 17.5319 58.8554 16.5796 59.6106C15.7001 60.308 15.3919 60.8289 15.6613 61.1686Z" fill="#28A100"/>
<path d="M20.9272 64.2371C20.0934 65.1637 19.6659 65.3726 19.3379 65.0774C19.0157 64.7874 19.2327 64.2223 19.9835 63.3878C20.7965 62.4844 21.2563 62.2628 21.5843 62.558C21.9238 62.8636 21.761 63.3107 20.9272 64.2371Z" fill="#28A100"/>
<path d="M24.7149 66.0916C25.0119 66.2587 25.289 66.1925 25.4521 65.9024C25.604 65.6325 25.5139 65.3506 25.2236 65.1875C24.9336 65.0242 24.6458 65.0933 24.4941 65.3632C24.3308 65.6533 24.4382 65.9358 24.7149 66.0916Z" fill="#28A100"/>
<path d="M26.5101 70.211C26.807 70.3781 27.0842 70.3119 27.2473 70.0218C27.3992 69.7519 27.3089 69.4701 27.0188 69.3068C26.7287 69.1436 26.441 69.2127 26.2892 69.4826C26.126 69.7727 26.2335 70.0554 26.5101 70.211Z" fill="#28A100"/>
<path d="M41.8983 70.4146L41.353 71.9721L42.5674 71.9201L41.8983 70.4146Z" fill="#28A100"/>
<path d="M58.0666 65.6311L57.3451 64.6722C57.534 64.5232 57.6582 64.423 57.7214 64.372L57.7312 64.3641C57.7516 64.3476 57.7641 64.3375 57.7689 64.3339C58.171 64.0315 58.4854 64.0372 58.7227 64.3527C58.974 64.6867 58.877 65.0214 58.4254 65.3611L58.0666 65.6311Z" fill="#28A100"/>
<path d="M62.5571 60.5038L63.3093 61.973L64.1089 61.0575L62.5571 60.5038Z" fill="#28A100"/>
<path fill-rule="evenodd" clip-rule="evenodd" d="M40.7778 0C18.6864 0 0.777832 17.9086 0.777832 40C0.777832 62.0914 18.6864 80 40.7778 80C62.8693 80 80.7778 62.0914 80.7778 40C80.7778 17.9086 62.8693 0 40.7778 0ZM40.7778 15.4009C47.3485 15.4009 53.5259 17.9597 58.1721 22.6057C62.8182 27.2519 65.3769 33.4293 65.3769 40C65.3769 46.5707 62.8181 52.7479 58.1721 57.3943C53.5259 62.0404 47.3486 64.5991 40.7778 64.5991C34.2072 64.5991 28.0297 62.0403 23.3836 57.3943C18.7374 52.7481 16.1788 46.5707 16.1788 40C16.1788 33.4293 18.7375 27.2521 23.3836 22.6057C28.0297 17.9597 34.2072 15.4009 40.7778 15.4009ZM8.43225 40.8259C8.43997 40.713 8.45001 40.5982 8.46257 40.4814C6.61305 37.7004 9.12203 35.7519 9.14802 35.7323L9.54025 35.4354L9.86101 35.8084C10.5361 36.5936 10.8304 37.4252 10.7358 38.2803C10.6163 39.36 9.89465 40.1583 9.51304 40.5111C9.48872 40.7172 9.47335 40.9167 9.4655 41.1088C9.71543 40.81 10.0379 40.5219 10.4463 40.3195C11.1906 39.9506 12.0418 39.942 12.9764 40.2939L13.4369 40.4674L13.2924 40.9377C13.2842 40.9643 12.5493 43.2552 10.2081 43.2552C10.1448 43.2552 10.0803 43.2535 10.0146 43.2501C9.90695 43.2444 9.79611 43.234 9.68197 43.2185C9.82348 43.7649 9.9808 44.0757 9.98461 44.083L9.05497 44.5647C9.03376 44.5238 8.78349 44.0298 8.60152 43.2003C8.3732 43.2379 8.15755 43.2552 7.95411 43.2552C5.61257 43.2552 4.87799 40.9643 4.86989 40.9377L4.72534 40.4674L5.18579 40.2939C6.12041 39.9418 6.97171 39.9506 7.7159 40.3195C7.99279 40.4567 8.2302 40.6333 8.43225 40.8259ZM73.44 39.3098C73.4376 39.3385 73.435 39.3673 73.4323 39.3962L73.4269 39.4523L73.42 39.5184C75.2697 42.2994 72.7605 44.2481 72.7346 44.2676L72.3424 44.5646L72.0217 44.1916C71.3466 43.4064 71.0522 42.5748 71.1469 41.7197C71.2663 40.6401 71.9879 39.8419 72.3695 39.489C72.3938 39.2829 72.4092 39.0834 72.417 38.8913C72.1671 39.1901 71.8447 39.4781 71.4364 39.6805C70.6921 40.0494 69.8407 40.058 68.9063 39.7059L68.4458 39.5326L68.5902 39.0623C68.5985 39.0357 69.3334 36.7448 71.6746 36.7448C71.8416 36.7448 72.0168 36.7565 72.2005 36.7814C72.059 36.2352 71.9018 35.9243 71.8979 35.917L72.8276 35.4354C72.8488 35.4763 73.099 35.9704 73.281 36.7997C73.5094 36.7621 73.7251 36.7448 73.9286 36.7448C76.2701 36.7448 77.0047 39.0357 77.0128 39.0623L77.1573 39.5326L76.6969 39.7059C75.7623 40.058 74.9109 40.0493 74.1668 39.6805C73.8898 39.5432 73.6524 39.3666 73.4503 39.174L73.4482 39.2042C73.4457 39.2392 73.4429 39.2744 73.44 39.3098ZM11.1203 24.8982L10.9467 23.0885L11.3711 22.3682L16.0398 25.1194L15.4503 26.1199L12.2022 24.2058L12.2539 24.8652L11.1203 24.8982ZM13.7453 18.9347C13.3618 19.4112 13.2586 19.9343 13.4396 20.4874C13.6204 21.0406 14.0541 21.5882 14.7296 22.1321C16.0744 23.2145 17.2962 23.3633 18.0729 22.3983C18.8448 21.4394 18.4299 20.3005 17.079 19.2131C16.4036 18.6694 15.7709 18.369 15.192 18.3104C14.6129 18.2518 14.1288 18.4583 13.7453 18.9347ZM17.0873 16.3117C16.9986 15.7367 17.1853 15.237 17.6412 14.8292C18.0969 14.4214 18.6083 14.2962 19.1701 14.448C19.7319 14.5997 20.3073 14.9991 20.8855 15.6452C22.0419 16.9375 22.2665 18.1288 21.3491 18.9496C20.4261 19.7757 19.2444 19.4305 18.0931 18.1439C17.515 17.4977 17.176 16.8868 17.0873 16.3117ZM21.2639 12.2818C21.1271 12.6528 21.164 13.0323 21.3814 13.4163C21.5988 13.8003 21.9052 14.0272 22.3016 14.1142C22.694 14.1945 23.1025 14.1146 23.5202 13.8781C23.9378 13.6417 24.2166 13.3326 24.3496 12.9547C24.4788 12.5702 24.4419 12.1909 24.2245 11.8067C24.0072 11.4227 23.7007 11.1957 23.3121 11.1223C22.9196 11.0419 22.5112 11.1219 22.0935 11.3583C21.6757 11.595 21.397 11.904 21.2639 12.2818ZM25.0308 9.69538L24.2191 16.0712L25.0235 16.1407L25.8371 9.79939L25.0308 9.69538ZM25.7181 12.8738C25.5813 13.2449 25.6182 13.6242 25.8356 14.0083C26.0531 14.3922 26.3596 14.6192 26.7557 14.7064C27.1481 14.7867 27.5566 14.7066 27.9743 14.4701C28.3919 14.2336 28.6707 13.9245 28.8037 13.5468C28.9329 13.1623 28.896 12.7828 28.6786 12.3988C28.4613 12.0146 28.1548 11.7878 27.7662 11.7142C27.3737 11.6339 26.9654 11.7139 26.5476 11.9504C26.13 12.187 25.8512 12.496 25.7181 12.8738ZM37.458 11.5975L36.485 11.7847L33.3466 9.07746L33.961 12.2703L32.8207 12.4897L31.7967 7.16818L32.7697 6.98098L35.9111 9.70342L35.2937 6.49533L36.4341 6.27592L37.458 11.5975ZM41.0507 6.09823L38.6528 11.4547L39.8988 11.4882L40.3784 10.3627L42.522 10.4205L42.9402 11.5703L44.2635 11.6059L42.1574 6.12801L41.0507 6.09823ZM45.3449 7.51249L45.5838 6.3761L49.9777 7.29947L49.7389 8.43592L48.1479 8.10154L47.2723 12.2682L46.0602 12.0134L46.9358 7.84675L45.3449 7.51249ZM55.1189 12.721L56.3763 9.79817L55.2383 9.30857L54.0788 12.0039C53.7117 12.8573 53.2771 13.2013 52.6228 12.9198C51.933 12.6231 51.7875 12.0211 52.1791 11.1108L53.3112 8.4794L52.1732 7.98992L50.9373 10.8631C50.6313 11.5743 50.598 12.2004 50.8269 12.7456C51.0559 13.2908 51.5027 13.7022 52.164 13.9866C52.7472 14.2376 53.3073 14.2677 53.8443 14.0774C54.3884 13.8901 54.8099 13.4394 55.1189 12.721ZM56.8258 16.4185L55.8132 15.7054L58.9336 11.2752C59.0285 11.3421 59.2943 11.5292 59.7355 11.8305C60.1766 12.1318 60.4172 12.3012 60.4489 12.3234C61.5944 13.1302 61.7092 14.0159 61.0896 14.8957C60.666 15.4969 60.116 15.7535 59.4423 15.6481L59.5031 18.3043L58.2752 17.4395L58.2914 15.1312L57.918 14.8681L56.8258 16.4185ZM65.4048 16.5636L59.9129 18.6336L60.7667 19.5417L61.9035 19.0895L63.3721 20.6522L62.8503 21.7588L63.757 22.7235L66.163 17.3703L65.4048 16.5636ZM64.4136 23.7779L68.9826 20.8634L69.6488 21.9077L66.0589 24.1979L67.2455 26.0581L66.2665 26.6827L64.4136 23.7779ZM16.7966 55.0349L15.1375 54.2918L14.6059 55.2936L15.2048 55.5745L11.936 57.4529L12.5146 58.4597L17.2131 55.7598L16.7966 55.0349ZM17.6988 57.7449C18.2782 57.6906 18.7657 57.9067 19.1457 58.386C19.5257 58.8652 19.6203 59.3831 19.4353 59.9348C19.2504 60.4865 18.8176 61.0372 18.1383 61.576C16.7795 62.6534 15.577 62.8067 14.8122 61.8421C14.0426 60.8716 14.4574 59.7126 15.8101 58.64C16.4894 58.1013 17.1195 57.7992 17.6988 57.7449ZM22.3094 61.7524C21.8548 61.3432 21.338 61.2116 20.7759 61.3617C20.2137 61.5118 19.6429 61.9148 19.0628 62.5592C17.9079 63.8424 17.6921 65.0543 18.6128 65.8829C19.5279 66.7062 20.688 66.3548 21.848 65.0658C22.4281 64.4212 22.763 63.8061 22.8533 63.2312C22.9436 62.6565 22.764 62.1615 22.3094 61.7524ZM22.7429 68.6331L28.6212 66.033L28.9488 66.7771L23.0991 69.3577L22.7429 68.6331ZM23.5493 64.8317C23.7657 64.4471 24.0715 64.2193 24.46 64.1448C24.8522 64.0634 25.2609 64.1424 25.6792 64.3777C26.0975 64.6131 26.3771 64.9213 26.5112 65.2989C26.6491 65.6696 26.6132 66.0492 26.3967 66.4338C26.1803 66.8183 25.8745 67.046 25.4784 67.1342C25.0862 67.2155 24.6775 67.1365 24.2592 66.9012C23.8409 66.6659 23.5613 66.3576 23.4272 65.9801C23.297 65.5957 23.333 65.2162 23.5493 64.8317ZM25.3446 68.951C25.561 68.5665 25.8668 68.3387 26.2553 68.2642C26.6475 68.1828 27.0562 68.2617 27.4745 68.4972C27.8928 68.7325 28.1724 69.041 28.3065 69.4183C28.4444 69.7891 28.4085 70.1686 28.192 70.5533C27.9756 70.9378 27.6698 71.1656 27.2737 71.2537C26.8815 71.335 26.4728 71.2562 26.0545 71.0207C25.6362 70.7853 25.3566 70.4771 25.2225 70.0995C25.0922 69.7153 25.1281 69.3356 25.3446 68.951ZM36.1153 73.9901L37.0905 74.1664L38.0549 68.8335L36.9121 68.6269L36.3307 71.8419L34.3828 68.1696L33.4076 67.9932L32.4432 73.3261L33.586 73.5327L34.1646 70.333L36.1153 73.9901ZM39.2937 74.3618L41.3121 68.8511L42.4181 68.8036L44.9012 74.1211L43.5786 74.1779L43.0812 73.0602L40.9387 73.1521L40.5389 74.3083L39.2937 74.3618ZM44.722 68.6497L44.9846 69.7808L46.5681 69.4131L47.5311 73.5604L48.7376 73.2803L47.7746 69.133L49.3582 68.7653L49.0955 67.6343L44.722 68.6497ZM54.2525 65.3779L55.586 68.2665C55.9137 68.9762 55.9672 69.591 55.743 70.1208C55.5257 70.6473 55.1289 71.0437 54.5526 71.3098C53.8991 71.6115 53.2946 71.6688 52.7361 71.4749C52.1776 71.2808 51.7343 70.8376 51.4099 70.1347L50.0991 67.2954L51.2235 66.7762L52.4239 69.3767C52.8392 70.2763 53.3842 70.5704 54.0659 70.2556C54.7125 69.957 54.747 69.404 54.3578 68.5607L53.1282 65.8971L54.2525 65.3779ZM58.9151 68.8195L59.905 68.0747L58.7649 66.5591L59.1298 66.2845L61.3218 67.0088L62.5219 66.1059L59.9752 65.348C60.2824 64.7389 60.2071 64.1368 59.765 63.5491C59.1181 62.6892 58.2398 62.5263 57.1201 63.3688L57.1166 63.3714C57.0741 63.4035 56.8407 63.5794 56.4319 63.8963C56.0161 64.2187 55.7576 64.4133 55.6613 64.4857L55.6571 64.4889L58.9151 68.8195ZM63.6198 65.1125L61.0203 59.8503L61.7488 59.0164L67.3128 60.8852L66.4417 61.8823L65.2891 61.4717L63.8782 63.0869L64.4399 64.1738L63.6198 65.1125ZM63.755 56.3617L68.4412 59.0841L70.172 56.1052L69.1678 55.5218L68.0593 57.4297L64.3773 55.2905L63.755 56.3617Z" fill="#28A100"/>
<path d="M22.6638 46.8932V33.281H31.836V35.6538H25.5417V38.8973H31.3641V41.2702H25.5417V44.5203H31.8626V46.8932H22.6638Z" fill="#28A100"/>
<path d="M46.1345 38.0466H43.2233C43.1701 37.6699 43.0615 37.3354 42.8976 37.0429C42.7336 36.7461 42.5232 36.4935 42.2662 36.2852C42.0092 36.077 41.7123 35.9175 41.3755 35.8067C41.0432 35.6959 40.6821 35.6405 40.2921 35.6405C39.5876 35.6405 38.9739 35.8155 38.451 36.1656C37.9282 36.5112 37.5227 37.0164 37.2347 37.681C36.9467 38.3412 36.8027 39.1433 36.8027 40.0871C36.8027 41.0575 36.9467 41.8728 37.2347 42.533C37.5272 43.1932 37.9348 43.6917 38.4577 44.0285C38.9805 44.3653 39.5854 44.5336 40.2722 44.5336C40.6577 44.5336 41.0144 44.4827 41.3423 44.3808C41.6746 44.2789 41.9693 44.1304 42.2263 43.9354C42.4833 43.736 42.696 43.4946 42.8644 43.211C43.0372 42.9274 43.1568 42.6039 43.2233 42.2406L46.1345 42.2539C46.0591 42.8786 45.8708 43.4813 45.5695 44.0617C45.2726 44.6378 44.8716 45.154 44.3665 45.6104C43.8658 46.0624 43.2676 46.4213 42.5719 46.6871C41.8807 46.9486 41.0986 47.0793 40.2257 47.0793C39.0116 47.0793 37.926 46.8045 36.9688 46.2551C36.0162 45.7056 35.2629 44.9103 34.709 43.869C34.1596 42.8277 33.8848 41.567 33.8848 40.0871C33.8848 38.6027 34.164 37.3398 34.7223 36.2985C35.2806 35.2572 36.0383 34.4641 36.9954 33.9191C37.9525 33.3696 39.0293 33.0949 40.2257 33.0949C41.0144 33.0949 41.7455 33.2057 42.419 33.4272C43.097 33.6488 43.6974 33.9722 44.2203 34.3976C44.7431 34.8186 45.1685 35.3348 45.4964 35.9463C45.8287 36.5578 46.0414 37.2579 46.1345 38.0466Z" fill="#28A100"/>
<path d="M60.7071 40.0871C60.7071 41.5715 60.4257 42.8343 59.863 43.8756C59.3047 44.9169 58.5425 45.7123 57.5765 46.2617C56.615 46.8068 55.5338 47.0793 54.333 47.0793C53.1233 47.0793 52.0377 46.8045 51.0762 46.2551C50.1147 45.7056 49.3547 44.9103 48.7964 43.869C48.2381 42.8277 47.959 41.567 47.959 40.0871C47.959 38.6027 48.2381 37.3398 48.7964 36.2985C49.3547 35.2572 50.1147 34.4641 51.0762 33.9191C52.0377 33.3696 53.1233 33.0949 54.333 33.0949C55.5338 33.0949 56.615 33.3696 57.5765 33.9191C58.5425 34.4641 59.3047 35.2572 59.863 36.2985C60.4257 37.3398 60.7071 38.6027 60.7071 40.0871ZM57.7892 40.0871C57.7892 39.1255 57.6452 38.3147 57.3572 37.6544C57.0736 36.9942 56.6726 36.4935 56.1542 36.1523C55.6357 35.8111 55.0287 35.6405 54.333 35.6405C53.6373 35.6405 53.0303 35.8111 52.5119 36.1523C51.9934 36.4935 51.5902 36.9942 51.3022 37.6544C51.0186 38.3147 50.8768 39.1255 50.8768 40.0871C50.8768 41.0486 51.0186 41.8595 51.3022 42.5197C51.5902 43.18 51.9934 43.6807 52.5119 44.0219C53.0303 44.363 53.6373 44.5336 54.333 44.5336C55.0287 44.5336 55.6357 44.363 56.1542 44.0219C56.6726 43.6807 57.0736 43.18 57.3572 42.5197C57.6452 41.8595 57.7892 41.0486 57.7892 40.0871Z" fill="#28A100"/>
</svg>
