<svg width="166" height="166" viewBox="0 0 166 166" fill="none" xmlns="http://www.w3.org/2000/svg">
<path opacity="0.4" d="M158 83C158 92.8491 156.06 102.602 152.291 111.701C148.522 120.801 142.997 129.069 136.033 136.033C129.069 142.997 120.801 148.522 111.701 152.291C102.602 156.06 92.8491 158 83 158C73.1509 158 63.3982 156.06 54.2987 152.291C45.1993 148.522 36.9314 142.997 29.967 136.033C23.0026 129.069 17.4781 120.801 13.709 111.701C9.93993 102.602 8 92.8491 8 83C8 73.1509 9.93993 63.3982 13.709 54.2987C17.4781 45.1993 23.0026 36.9314 29.967 29.967C36.9314 23.0026 45.1993 17.4781 54.2988 13.709C63.3982 9.93993 73.1509 8 83 8C92.8492 8 102.602 9.93993 111.701 13.709C120.801 17.4781 129.069 23.0026 136.033 29.967C142.997 36.9314 148.522 45.1993 152.291 54.2988C156.06 63.3982 158 73.1509 158 83L158 83Z" stroke="#DC3030" stroke-width="10" stroke-linecap="round" stroke-linejoin="round"/>
<path d="M46.2959 25.1637C59.7546 16.6225 75.7708 13.0425 91.5853 15.0403C107.4 17.0381 122.023 24.4888 132.934 36.1087C135.392 38.7256 139.505 38.8548 142.122 36.3974C144.739 33.94 144.868 29.8264 142.411 27.2096C129.428 13.3844 112.03 4.51979 93.2147 2.1428C74.3988 -0.234186 55.3431 4.02528 39.3301 14.1874C23.3171 24.3496 11.3495 39.7781 5.4889 57.8153C-0.371719 75.8524 0.241608 95.3688 7.22323 113.002C14.2048 130.636 27.1176 145.283 43.7371 154.419C60.3566 163.556 79.6422 166.61 98.2716 163.057C116.901 159.503 133.708 149.563 145.797 134.95C157.886 120.337 164.5 101.966 164.5 83.0002C164.5 79.4103 161.59 76.5002 158 76.5002C154.41 76.5002 151.5 79.4103 151.5 83.0002C151.5 98.9404 145.941 114.382 135.78 126.664C125.619 138.946 111.493 147.3 95.8356 150.287C80.1778 153.274 63.9684 150.706 49.9999 143.027C36.0314 135.348 25.1783 123.038 19.3103 108.217C13.4423 93.3958 12.9268 76.9925 17.8526 61.8325C22.7784 46.6724 32.8371 33.7049 46.2959 25.1637Z" fill="#59C112" stroke="white" stroke-width="3" stroke-linecap="round" stroke-linejoin="round"/>
</svg>
