<svg width="166" height="166" viewBox="0 0 166 166" fill="none" xmlns="http://www.w3.org/2000/svg">
<path opacity="0.4" d="M158 83C158 92.8491 156.06 102.602 152.291 111.701C148.522 120.801 142.997 129.069 136.033 136.033C129.069 142.997 120.801 148.522 111.701 152.291C102.602 156.06 92.8491 158 83 158C73.1509 158 63.3982 156.06 54.2987 152.291C45.1993 148.522 36.9314 142.997 29.967 136.033C23.0026 129.069 17.4781 120.801 13.709 111.701C9.93993 102.602 8 92.8491 8 83C8 73.1509 9.93993 63.3982 13.709 54.2987C17.4781 45.1993 23.0026 36.9314 29.967 29.967C36.9314 23.0026 45.1993 17.4781 54.2988 13.709C63.3982 9.93993 73.1509 8 83 8C92.8492 8 102.602 9.93993 111.701 13.709C120.801 17.4781 129.069 23.0026 136.033 29.967C142.997 36.9314 148.522 45.1993 152.291 54.2988C156.06 63.3982 158 73.1509 158 83L158 83Z" stroke="#DC3030" stroke-width="10" stroke-linecap="round" stroke-linejoin="round"/>
<path d="M51.9017 21.9662C66.434 14.5615 83.1316 12.5853 98.991 16.3928C114.85 20.2003 128.831 29.5417 138.418 42.7368C140.528 45.6411 144.593 46.2849 147.497 44.1748C150.401 42.0648 151.045 37.9999 148.935 35.0956C137.529 19.3963 120.895 8.28206 102.026 3.75196C83.1566 -0.778142 63.2901 1.57321 45.9998 10.3831C28.7094 19.1929 15.13 33.8832 7.70383 51.8114C0.277705 69.7397 -0.50769 89.7294 5.48891 108.185C11.4855 126.641 23.8706 142.351 40.4164 152.49C56.9622 162.63 76.5829 166.532 95.7494 163.497C114.916 160.461 132.37 150.686 144.973 135.93C157.576 121.174 164.5 102.406 164.5 83.0001C164.5 79.4103 161.59 76.5001 158 76.5001C154.41 76.5001 151.5 79.4103 151.5 83.0001C151.5 99.3102 145.68 115.085 135.088 127.487C124.495 139.89 109.825 148.105 93.7158 150.657C77.6065 153.208 61.1155 149.928 47.2089 141.406C33.3022 132.884 22.8927 119.68 17.8526 104.168C12.8126 88.656 13.4727 71.8548 19.7143 56.7863C25.9559 41.7178 37.3693 29.3708 51.9017 21.9662Z" fill="#59C112" stroke="white" stroke-width="3" stroke-linecap="round" stroke-linejoin="round"/>
</svg>
