<svg width="36" height="36" viewBox="0 0 36 36" fill="none" xmlns="http://www.w3.org/2000/svg">
<path d="M35.6589 34.0414L26.3643 24.8954C28.7983 22.2509 30.2938 18.7536 30.2938 14.9052C30.2926 6.67277 23.5118 0 15.1465 0C6.78132 0 0.000488281 6.67277 0.000488281 14.9052C0.000488281 23.1377 6.78132 29.8105 15.1465 29.8105C18.7609 29.8105 22.0759 28.5603 24.6798 26.4819L34.0105 35.6641C34.4651 36.1119 35.2032 36.1119 35.6578 35.6641C35.766 35.5585 35.8519 35.4323 35.9107 35.293C35.9694 35.1537 35.9997 35.0041 35.9998 34.853C35.9999 34.7018 35.9698 34.5522 35.9112 34.4128C35.8527 34.2735 35.7669 34.1472 35.6589 34.0414ZM15.1465 27.5172C8.06865 27.5172 2.33092 21.8706 2.33092 14.9052C2.33092 7.93981 8.06865 2.29326 15.1465 2.29326C22.2245 2.29326 27.9621 7.93981 27.9621 14.9052C27.9621 21.8706 22.2245 27.5172 15.1465 27.5172Z" fill="#3077E0"/>
</svg>
