<svg width="37" height="34" viewBox="0 0 37 34" fill="none" xmlns="http://www.w3.org/2000/svg">
<path d="M26.5313 12.2609C25.7118 9.34287 24.1669 6.80668 22.1104 5.00329C22.0931 4.99172 22.0763 4.97904 22.0601 4.96532C20.6373 3.73461 19.0129 2.8918 17.2978 2.49445C15.5827 2.0971 13.8173 2.15457 12.1222 2.66293C10.427 3.17129 8.84202 4.11857 7.47542 5.44009C6.10881 6.76161 4.99278 8.42624 4.20353 10.3203L3.17273 9.68751C4.03496 7.61761 5.25349 5.79774 6.7455 4.35158C8.23751 2.90542 9.96803 1.86688 11.8194 1.30654C13.6708 0.746197 15.5997 0.677191 17.475 1.10421C19.3503 1.53123 21.128 2.44426 22.6873 3.78126C22.7048 3.79307 22.7218 3.80598 22.7382 3.81993C25.0135 5.79796 26.7231 8.59211 27.6274 11.8109L26.5313 12.2609ZM15.0312 33.1719C12.5732 33.1796 10.162 32.3549 8.0676 30.7902C5.97318 29.2255 4.27829 26.9825 3.17273 24.3125L4.20353 23.6797C4.99262 25.5739 6.10853 27.2388 7.47507 28.5605C8.8416 29.8822 10.4266 30.8297 12.1217 31.3383C13.8169 31.8469 15.5824 31.9045 17.2975 31.5073C19.0127 31.1101 20.6372 30.2674 22.0601 29.0368C22.0769 29.0226 22.0942 29.0095 22.1121 28.9974C24.1677 27.1939 25.7119 24.6583 26.5313 21.7412L27.6297 22.1905C26.7254 25.4093 25.0159 28.2035 22.7405 30.1815C22.7236 30.196 22.706 30.2094 22.6879 30.2216C20.4513 32.1524 17.774 33.184 15.0312 33.1719Z" fill="#3077E0"/>
<path d="M4.04688 24.7344C1.77773 24.7344 0 21.3369 0 17C0 12.6631 1.77773 9.26562 4.04688 9.26562C6.31602 9.26562 8.09375 12.6631 8.09375 17C8.09375 21.3369 6.31602 24.7344 4.04688 24.7344ZM4.04688 10.6719C2.48016 10.6719 1.15625 13.5695 1.15625 17C1.15625 20.4305 2.48016 23.3281 4.04688 23.3281C5.61359 23.3281 6.9375 20.4305 6.9375 17C6.9375 13.5695 5.61359 10.6719 4.04688 10.6719Z" fill="#3077E0"/>
<path d="M5.78125 21.2188C4.48452 21.2188 3.46875 19.3653 3.46875 17C3.46875 14.6347 4.48452 12.7812 5.78125 12.7812C7.07798 12.7812 8.09375 14.6347 8.09375 17C8.09375 19.3653 7.07798 21.2188 5.78125 21.2188ZM5.78125 14.1875C5.2355 14.1875 4.625 15.3905 4.625 17C4.625 18.6095 5.2355 19.8125 5.78125 19.8125C6.327 19.8125 6.9375 18.6095 6.9375 17C6.9375 15.3905 6.327 14.1875 5.78125 14.1875ZM19.6562 26.1406C19.5684 26.1406 19.4818 26.1162 19.4029 26.0694C19.3239 26.0226 19.2548 25.9545 19.2008 25.8703C19.1467 25.7861 19.1091 25.6881 19.0909 25.5836C19.0727 25.4791 19.0742 25.371 19.0955 25.2673C19.1469 25.0156 20.4078 19.1094 24.2812 19.1094C27.01 19.1094 27.1638 17.2552 27.1719 17C27.1638 16.7448 27.01 14.8906 24.2812 14.8906C20.4078 14.8906 19.1469 8.98438 19.0955 8.73266C19.0742 8.62903 19.0727 8.52087 19.0909 8.4164C19.1091 8.31193 19.1467 8.21389 19.2008 8.12971C19.2548 8.04554 19.3239 7.97745 19.4029 7.93061C19.4818 7.88376 19.5684 7.8594 19.6562 7.85938C20.9736 7.87977 22.2424 8.46746 23.2372 9.51805C23.9621 10.1628 24.5345 10.6719 25.4375 10.6719C26.5359 10.6719 27.6795 11.5972 29.1254 12.77C31.0632 14.3415 33.4734 16.2969 36.4219 16.2969C36.5752 16.2969 36.7223 16.371 36.8307 16.5028C36.9391 16.6347 37 16.8135 37 17C37 17.1865 36.9391 17.3653 36.8307 17.4972C36.7223 17.629 36.5752 17.7031 36.4219 17.7031C33.4734 17.7031 31.0632 19.6585 29.1254 21.23C27.6795 22.4028 26.5359 23.3281 25.4375 23.3281C24.5345 23.3281 23.9621 23.8372 23.2372 24.482C22.2424 25.5325 20.9736 26.1202 19.6562 26.1406ZM20.4876 9.36336C20.9692 10.8413 22.13 13.4844 24.2812 13.4844C28.2819 13.4844 28.3281 16.9648 28.3281 17C28.3281 17.0352 28.2819 20.5156 24.2812 20.5156C22.13 20.5156 20.9692 23.1587 20.4876 24.6366C21.2489 24.4045 21.9562 23.9628 22.555 23.3457C23.3512 22.4793 24.37 21.976 25.4375 21.9219C26.1891 21.9219 27.2517 21.0584 28.4842 20.06C29.913 18.8033 31.4685 17.7749 33.1127 17C31.4685 16.2251 29.913 15.1967 28.4842 13.94C27.2517 12.9416 26.1891 12.0781 25.4375 12.0781C24.37 12.024 23.3512 11.5207 22.555 10.6543C21.9562 10.0372 21.2489 9.59549 20.4876 9.36336Z" fill="#3077E0"/>
<path d="M32.4629 16.6688C29.8035 11.4931 25.0901 5.60371 22.3093 5.08832L22.4827 3.69824C25.678 4.29098 30.6597 10.5059 33.4423 15.9249L32.4629 16.6688ZM22.4839 30.3017L22.3105 28.9116C25.0912 28.3962 29.8053 22.5068 32.4641 17.3311L33.4469 18.075C30.6609 23.494 25.6792 29.7089 22.4839 30.3017ZM7.95735 9.75004L7.07397 8.84371C8.05014 7.4331 9.26827 6.29934 10.6429 5.52197C12.0175 4.7446 13.5153 4.34244 15.0313 4.34371V5.74996C13.6837 5.7489 12.3522 6.10641 11.1302 6.79741C9.90816 7.48841 8.82524 8.49618 7.95735 9.75004ZM16.1875 4.34371H17.3438V5.74996H16.1875V4.34371Z" fill="#3077E0"/>
</svg>
