<svg width="82" height="82" viewBox="0 0 82 82" fill="none" xmlns="http://www.w3.org/2000/svg">
<path d="M52.9014 34.6799C51.2233 33.7175 49.3584 32.8683 47.3318 32.2638C50.0311 34.2272 51.7907 37.408 51.7907 40.9936C51.7907 40.996 51.7907 40.9978 51.7907 40.9998C51.7907 41.0016 51.7907 41.0038 51.7907 41.0056C51.7907 46.9559 46.9499 51.7969 40.9999 51.7969C30.3913 51.7969 22.6238 44.3315 19.6894 41.0047C19.6907 41.0027 19.6924 41.0011 19.6937 40.9998C19.6924 40.9982 19.6907 40.9964 19.6894 40.9951C21.2646 39.2091 24.2338 36.2318 28.2858 33.856C29.436 31.8137 31.0628 30.0766 33.015 28.7935C22.5674 32.1511 16.2253 41 16.2253 41C16.2253 41 25.8841 54.4783 40.9998 54.4783C48.4404 54.4783 54.4721 48.4469 54.4721 41.0057C54.4721 41.0039 54.4718 41.0017 54.4718 41C54.4718 40.9979 54.4721 40.9961 54.4721 40.9938C54.4722 38.7118 53.9028 36.5635 52.9014 34.6799Z" fill="#3077E0"/>
<path d="M40.9999 27.521C33.5593 27.521 27.5276 33.5524 27.5276 40.9931C27.5276 40.9954 27.5276 40.9972 27.5276 40.9993C27.5276 41.0011 27.5276 41.0032 27.5276 41.005C27.5276 43.2879 28.0973 45.437 29.0994 47.321C30.7771 48.283 32.6427 49.1309 34.6683 49.7354C31.9686 47.7717 30.209 44.5912 30.209 41.005C30.209 41.0032 30.209 41.0011 30.209 40.9993C30.209 40.9972 30.209 40.9954 30.209 40.9931C30.209 35.0433 35.0497 30.2022 40.9999 30.2022C51.6085 30.2022 59.3758 37.6676 62.3103 40.9944C62.309 40.9957 62.3074 40.9975 62.3059 40.9991C62.3074 41.0005 62.309 41.002 62.3103 41.004C60.7352 42.7899 57.7655 45.7672 53.7127 48.1435C52.563 50.1843 50.938 51.9218 48.9868 53.2044C59.433 49.8462 65.7743 40.9991 65.7743 40.9991C65.7743 40.9991 56.1155 27.521 40.9999 27.521Z" fill="#3077E0"/>
<path d="M40.9999 33.1565C36.668 33.1565 33.1565 36.6677 33.1565 40.9998C33.1565 45.3314 36.6679 48.8429 40.9999 48.8429C45.3316 48.8429 48.8432 45.3315 48.8432 40.9998C48.8432 36.6678 45.3316 33.1565 40.9999 33.1565ZM40.9999 36.0315C38.256 36.0315 36.0316 38.2555 36.0316 40.9998C36.0316 42.2792 34.4819 42.2942 34.4819 40.9998C34.4819 37.3995 37.4002 34.4819 40.9999 34.4819C42.4811 34.4821 42.4811 36.0315 40.9999 36.0315Z" fill="#3077E0"/>
<path d="M41 81C30.3156 81 20.2707 76.8393 12.7157 69.2843C5.16071 61.7293 1 51.6843 1 40.9999C1 30.3156 5.16071 20.2707 12.7157 12.7157C20.2707 5.16071 30.3156 1 41 1C51.6844 1 61.7293 5.16071 69.2843 12.7157C76.8393 20.2707 81 30.3154 81 40.9999C81 51.6844 76.8393 61.7293 69.2843 69.2842C61.7293 76.8393 51.6844 81 41 81ZM41 1.95415C19.47 1.95415 1.95416 19.4699 1.95416 40.9999C1.95416 62.53 19.47 80.0458 41 80.0458C62.53 80.0458 80.0458 62.53 80.0458 40.9999C80.0458 19.4699 62.53 1.95415 41 1.95415Z" fill="#3077E0"/>
<path d="M40.9999 69.8002C33.3072 69.8002 26.0748 66.8045 20.6353 61.3649C15.1958 55.9253 12.2 48.6929 12.2 41.0002C12.2 33.3074 15.1956 26.075 20.6353 20.6355C26.0749 15.196 33.3072 12.2002 40.9999 12.2002C48.6927 12.2002 55.925 15.1959 61.3646 20.6355C66.8041 26.075 69.7999 33.3074 69.7999 41.0002C69.7999 48.6929 66.8043 55.9253 61.3646 61.3649C55.9251 66.8045 48.6927 69.8002 40.9999 69.8002ZM40.9999 12.9158C25.5141 12.9158 12.9156 25.5143 12.9156 41.0002C12.9156 56.486 25.5141 69.0846 40.9999 69.0846C56.4858 69.0846 69.0843 56.486 69.0843 41.0002C69.0843 25.5143 56.4858 12.9158 40.9999 12.9158Z" fill="#3077E0"/>
<path d="M23.0099 29.1924L19.5996 26.6281L20.4661 25.4758C20.6665 25.2094 20.8761 25.0247 21.0951 24.9217C21.3141 24.8189 21.5333 24.7855 21.7528 24.8218C21.9722 24.8583 22.1824 24.952 22.3832 25.103C22.5842 25.2542 22.7315 25.4292 22.8251 25.6281C22.9188 25.8272 22.9458 26.0447 22.9065 26.281C22.867 26.5171 22.7478 26.7674 22.5493 27.0316L21.8481 27.964L21.4751 27.6835L22.1663 26.7644C22.3031 26.5824 22.3869 26.4154 22.4175 26.2638C22.4481 26.1122 22.4332 25.9742 22.373 25.8498C22.3126 25.7254 22.2144 25.6119 22.0777 25.5093C21.9411 25.4066 21.8026 25.3425 21.6621 25.3167C21.5216 25.2909 21.3813 25.3131 21.2409 25.3831C21.1005 25.4531 20.961 25.5802 20.8224 25.7644L20.2765 26.4904L23.3203 28.7792L23.0099 29.1924ZM22.6849 26.4352L24.8479 26.7479L24.4874 27.2275L22.3343 26.9015L22.6849 26.4352Z" fill="#3077E0"/>
<path d="M25.2312 26.3714L22.2749 23.2949L24.1316 21.5107L24.4492 21.8412L22.965 23.2673L23.9639 24.3069L25.3521 22.9731L25.6696 23.3036L24.2815 24.6375L25.2862 25.683L26.7945 24.2338L27.112 24.5643L25.2312 26.3714Z" fill="#3077E0"/>
<path d="M28.877 19.734L28.4485 20.0229C28.3403 19.9167 28.2231 19.8383 28.0975 19.7872C27.9719 19.7362 27.8428 19.709 27.7105 19.7052C27.5782 19.7015 27.447 19.7199 27.317 19.7607C27.187 19.8015 27.0634 19.8615 26.9459 19.9406C26.7317 20.085 26.5745 20.2699 26.474 20.4948C26.3737 20.72 26.3437 20.9723 26.3839 21.2517C26.4239 21.5313 26.5474 21.8241 26.754 22.1304C26.9604 22.4368 27.1857 22.6609 27.4297 22.8031C27.6738 22.945 27.919 23.0118 28.1652 23.0032C28.4115 22.9946 28.6418 22.918 28.856 22.7736C28.9733 22.6944 29.0754 22.6022 29.1619 22.497C29.2485 22.3918 29.3147 22.2771 29.3608 22.153C29.4071 22.029 29.4299 21.8988 29.4293 21.7627C29.4288 21.6265 29.4001 21.4888 29.3431 21.3496L29.7715 21.0608C29.8612 21.2634 29.9115 21.4649 29.9226 21.665C29.9337 21.8651 29.9095 22.0579 29.85 22.243C29.7904 22.428 29.6996 22.5993 29.5773 22.7573C29.4551 22.9152 29.3047 23.0541 29.1262 23.1745C28.8245 23.3779 28.5065 23.485 28.1722 23.496C27.8378 23.5071 27.5117 23.4221 27.1937 23.2411C26.8757 23.0601 26.5909 22.7831 26.3394 22.4099C26.0878 22.0369 25.9378 21.6689 25.8894 21.3063C25.841 20.9438 25.8844 20.6095 26.02 20.3038C26.1556 19.998 26.3742 19.7433 26.6758 19.54C26.8544 19.4195 27.0397 19.3323 27.2318 19.2782C27.4239 19.224 27.6169 19.2041 27.8107 19.2183C28.0045 19.2325 28.192 19.282 28.3732 19.3667C28.5541 19.4513 28.7222 19.5738 28.877 19.734Z" fill="#3077E0"/>
<path d="M33.5793 18.5033C33.7541 18.9181 33.8302 19.308 33.8076 19.6732C33.7851 20.0384 33.6777 20.3578 33.4856 20.6317C33.2936 20.9055 33.0297 21.1129 32.6944 21.2543C32.359 21.3956 32.0262 21.4393 31.6961 21.3853C31.3659 21.3316 31.0624 21.1851 30.7855 20.946C30.5085 20.7071 30.2826 20.3801 30.1079 19.9653C29.9333 19.5506 29.8572 19.1607 29.8797 18.7955C29.9023 18.4303 30.0096 18.1109 30.2016 17.8371C30.3938 17.5632 30.6575 17.3557 30.993 17.2144C31.3284 17.0732 31.6611 17.0295 31.9911 17.0833C32.3214 17.1372 32.6248 17.2837 32.9019 17.5227C33.179 17.7617 33.4047 18.0885 33.5793 18.5033ZM33.1186 18.6974C32.9752 18.357 32.7976 18.0935 32.5856 17.9069C32.3736 17.7204 32.146 17.6075 31.9026 17.5683C31.6593 17.5291 31.4185 17.5597 31.1805 17.66C30.9424 17.7603 30.7524 17.911 30.6105 18.1126C30.4686 18.3139 30.3902 18.5557 30.3755 18.8376C30.361 19.1196 30.4253 19.4309 30.5686 19.7713C30.7121 20.1118 30.8897 20.3753 31.1018 20.5618C31.3136 20.7483 31.5413 20.8613 31.7847 20.9004C32.028 20.9396 32.2687 20.9091 32.5067 20.8088C32.7448 20.7085 32.9349 20.5577 33.0769 20.3562C33.2188 20.1546 33.2971 19.913 33.3117 19.631C33.3264 19.3492 33.262 19.0379 33.1186 18.6974Z" fill="#3077E0"/>
<path d="M34.2676 16.0617L34.8741 15.9502L36.9401 19.1718L36.9892 19.1627L37.7755 15.4173L38.382 15.3059L39.153 19.5024L38.6776 19.5897L38.092 16.4014L38.0509 16.4089L37.3252 19.8381L36.8662 19.9225L34.9691 16.975L34.9281 16.9825L35.5137 20.1708L35.0384 20.2581L34.2676 16.0617Z" fill="#3077E0"/>
<path d="M40.1756 15.1887L40.7915 15.2187L42.0681 18.8264L42.1181 18.8289L43.738 15.3617L44.3541 15.3916L44.1474 19.6532L43.6646 19.6298L43.8215 16.392L43.7799 16.3899L42.291 19.5632L41.8249 19.5406L40.6503 16.2382L40.6085 16.2361L40.4516 19.4739L39.9688 19.4506L40.1756 15.1887Z" fill="#3077E0"/>
<path d="M44.9761 19.8566L46.0014 15.7148L48.501 16.3336L48.3909 16.7785L46.3928 16.284L46.0464 17.6834L47.915 18.1459L47.8048 18.5908L45.9362 18.1283L45.5878 19.5358L47.6181 20.0384L47.5079 20.4832L44.9761 19.8566Z" fill="#3077E0"/>
<path d="M53.0372 18.179L51.2965 22.0745L50.84 21.8705L50.0839 17.8633L50.0459 17.8462L48.6792 20.9049L48.2075 20.6942L49.9483 16.7986L50.4047 17.0027L51.1649 21.0207L51.203 21.0378L52.573 17.9715L53.0372 18.179Z" fill="#3077E0"/>
<path d="M53.1074 23.2594L52.03 22.5022L54.4832 19.0112L55.6082 19.8019C55.947 20.0398 56.1876 20.3131 56.3309 20.6215C56.474 20.93 56.5185 21.2592 56.4645 21.609C56.4104 21.9591 56.2565 22.3146 56.0024 22.6759C55.7468 23.0397 55.4624 23.3068 55.1488 23.4779C54.8351 23.6488 54.5052 23.7174 54.1587 23.6836C53.8123 23.6499 53.4619 23.5085 53.1074 23.2594ZM52.7162 22.4244L53.3435 22.8652C53.6322 23.0679 53.9106 23.1804 54.1786 23.2024C54.4465 23.2243 54.6994 23.1651 54.9372 23.0251C55.1748 22.8849 55.3935 22.6728 55.5932 22.3886C55.7912 22.1069 55.9159 21.8316 55.9672 21.5629C56.0185 21.2942 55.9912 21.0407 55.8853 20.8025C55.7793 20.5642 55.59 20.3493 55.3173 20.1578L54.6423 19.6833L52.7162 22.4244Z" fill="#3077E0"/>
<path d="M55.2795 24.9133L58.2909 21.8906L60.1151 23.708L59.7916 24.0327L58.3334 22.5799L57.3158 23.6012L58.6797 24.9599L58.3562 25.2847L56.9924 23.926L55.9689 24.9531L57.4508 26.4294L57.1273 26.7542L55.2795 24.9133Z" fill="#3077E0"/>
<path d="M58.3767 28.3774L57.6156 27.3029L61.0973 24.8367L61.8921 25.9588C62.1314 26.2964 62.2666 26.6347 62.298 26.9733C62.3294 27.312 62.2608 27.637 62.0925 27.9485C61.9243 28.2601 61.6599 28.5434 61.2996 28.7988C60.9369 29.0556 60.5791 29.2121 60.2264 29.2679C59.8736 29.3238 59.5397 29.2777 59.2248 29.1298C58.9099 28.9819 58.6272 28.7311 58.3767 28.3774ZM58.2883 27.4596L58.7315 28.0853C58.9353 28.3731 59.1599 28.5724 59.405 28.6831C59.6501 28.7937 59.9082 28.8228 60.1792 28.7704C60.45 28.7181 60.7273 28.5915 61.0106 28.3908C61.2917 28.1916 61.5014 27.9742 61.6399 27.7381C61.7782 27.5022 61.8375 27.2543 61.8177 26.9945C61.7978 26.7345 61.6915 26.4685 61.4988 26.1966L61.0219 25.5233L58.2883 27.4596Z" fill="#3077E0"/>
<path d="M59.4972 55.3335L57.3304 55.048L57.685 54.5639L59.8419 54.8629L59.4972 55.3335ZM59.1377 52.5808L62.5797 55.1022L61.7278 56.2652C61.5308 56.5341 61.3233 56.7214 61.1057 56.827C60.888 56.9327 60.6692 56.9687 60.4493 56.9351C60.2294 56.9015 60.0182 56.8103 59.8154 56.6617C59.6127 56.5132 59.4631 56.3401 59.367 56.1423C59.2708 55.9444 59.241 55.7273 59.2775 55.4905C59.3141 55.2539 59.4299 55.0021 59.6253 54.7355L60.3147 53.7943L60.6911 54.0701L60.0116 54.9978C59.877 55.1816 59.7954 55.3494 59.7666 55.5015C59.7379 55.6534 59.7544 55.7913 59.8163 55.915C59.8782 56.0385 59.9779 56.1509 60.1157 56.2518C60.2535 56.3527 60.3928 56.4151 60.5338 56.4391C60.6746 56.463 60.8147 56.4392 60.9542 56.3674C61.0936 56.2956 61.2315 56.1668 61.3678 55.9808L61.9045 55.248L58.8322 52.9975L59.1377 52.5808Z" fill="#3077E0"/>
<path d="M56.9503 55.4307L59.9444 58.4704L58.1099 60.2773L57.7883 59.9509L59.2547 58.5064L58.243 57.4794L56.8715 58.8302L56.55 58.5038L57.9214 57.1528L56.9039 56.1198L55.4137 57.5878L55.0922 57.2612L56.9503 55.4307Z" fill="#3077E0"/>
<path d="M53.3877 62.1122L53.8125 61.818C53.9223 61.9228 54.0402 61.9999 54.1665 62.0492C54.2928 62.0986 54.4222 62.1244 54.5545 62.1264C54.6869 62.1286 54.8178 62.1084 54.9473 62.0659C55.0768 62.0236 55.1997 61.9621 55.3163 61.8814C55.5286 61.7344 55.6835 61.5476 55.7811 61.3213C55.8785 61.095 55.9055 60.8424 55.8618 60.5635C55.8183 60.2845 55.6911 59.9932 55.4809 59.6895C55.2705 59.3857 55.0424 59.1645 54.7967 59.0255C54.551 58.8865 54.3051 58.8229 54.0588 58.8345C53.8128 58.8461 53.5834 58.9256 53.371 59.0726C53.2545 59.1533 53.1537 59.2468 53.0685 59.353C52.9832 59.4594 52.9184 59.5748 52.8738 59.6995C52.8291 59.8242 52.8079 59.9545 52.8102 60.0907C52.8125 60.2268 52.8429 60.3641 52.9017 60.5026L52.4768 60.7967C52.3846 60.5954 52.3317 60.3945 52.3182 60.1944C52.3047 59.9942 52.3264 59.8014 52.3837 59.6156C52.4409 59.4297 52.5297 59.2573 52.6499 59.0979C52.7701 58.9386 52.9188 58.7976 53.0957 58.6751C53.395 58.4679 53.7115 58.3568 54.0457 58.3416C54.3799 58.3265 54.707 58.4074 55.0272 58.5842C55.3474 58.7612 55.6357 59.0347 55.8919 59.4047C56.1479 59.7747 56.3026 60.1406 56.3557 60.5026C56.4088 60.8645 56.3693 61.1993 56.2376 61.5068C56.106 61.8142 55.8906 62.0715 55.5913 62.2787C55.4144 62.4013 55.2302 62.4909 55.0387 62.5474C54.8473 62.6041 54.6545 62.6264 54.4605 62.6146C54.2665 62.6027 54.0784 62.5557 53.8963 62.473C53.7141 62.3908 53.5446 62.2704 53.3877 62.1122Z" fill="#3077E0"/>
<path d="M48.6984 63.4029C48.5186 62.9903 48.4377 62.6014 48.4557 62.2361C48.4737 61.8706 48.5771 61.5498 48.7658 61.2737C48.9545 60.9976 49.2156 60.7867 49.5492 60.6413C49.8828 60.4958 50.2149 60.448 50.5457 60.4978C50.8764 60.5476 51.1819 60.6902 51.4618 60.9258C51.7418 61.1613 51.9715 61.4854 52.1514 61.8978C52.3312 62.3104 52.4121 62.6993 52.3941 63.0648C52.3761 63.4301 52.2727 63.7509 52.084 64.0271C51.8953 64.3033 51.6342 64.5141 51.3006 64.6595C50.967 64.8049 50.6349 64.8527 50.3041 64.803C49.9734 64.7531 49.668 64.6106 49.388 64.3749C49.108 64.1395 48.8783 63.8154 48.6984 63.4029ZM49.1568 63.2031C49.3044 63.5418 49.4854 63.803 49.6997 63.9869C49.9139 64.1707 50.1429 64.2808 50.3867 64.317C50.6305 64.3532 50.8708 64.3196 51.1077 64.2164C51.3444 64.1133 51.5326 63.96 51.6719 63.7568C51.8115 63.5536 51.8867 63.3109 51.8979 63.0287C51.909 62.7467 51.8408 62.4362 51.6932 62.0976C51.5455 61.7589 51.3646 61.4977 51.1502 61.3138C50.936 61.1298 50.707 61.0198 50.4633 60.9836C50.2195 60.9474 49.9791 60.981 49.7423 61.0843C49.5055 61.1875 49.3173 61.3406 49.178 61.544C49.0385 61.7471 48.9632 61.9898 48.952 62.272C48.9409 62.554 49.0091 62.8644 49.1568 63.2031Z" fill="#3077E0"/>
<path d="M48.0436 65.8522L47.4385 65.9713L45.3322 62.7759L45.2832 62.7856L44.544 66.5405L43.9389 66.6596L43.1156 62.473L43.5898 62.3797L44.2155 65.5605L44.2564 65.5525L44.9391 62.1145L45.397 62.0243L47.3309 64.9478L47.3719 64.9398L46.7463 61.759L47.2205 61.6658L48.0436 65.8522Z" fill="#3077E0"/>
<path d="M42.1444 66.7999L41.528 66.7774L40.2072 63.1855L40.1572 63.1837L38.5799 66.6706L37.9636 66.6482L38.1181 62.3843L38.6012 62.4017L38.4839 65.6413L38.5255 65.6428L39.9753 62.4515L40.4417 62.4685L41.6568 65.7563L41.6984 65.7578L41.8158 62.5182L42.2988 62.5356L42.1444 66.7999Z" fill="#3077E0"/>
<path d="M37.2861 62.1903L36.3126 66.3444L33.8054 65.7569L33.91 65.3107L35.9141 65.7804L36.2431 64.3767L34.3687 63.9374L34.4733 63.4911L36.3476 63.9304L36.6784 62.5186L34.6419 62.0414L34.7465 61.5952L37.2861 62.1903Z" fill="#3077E0"/>
<path d="M29.2502 63.9701L30.9417 60.053L31.4008 60.2512L32.2074 64.2485L32.2456 64.2651L33.5736 61.1895L34.048 61.3943L32.3566 65.3116L31.8974 65.1133L31.0866 61.1052L31.0484 61.0886L29.7171 64.1718L29.2502 63.9701Z" fill="#3077E0"/>
<path d="M29.1155 58.8903L30.2022 59.6339L27.7928 63.1552L26.6579 62.3786C26.3164 62.145 26.0721 61.8747 25.9251 61.5681C25.7782 61.2614 25.7295 60.9327 25.7792 60.5822C25.8289 60.2316 25.9785 59.874 26.2279 59.5096C26.4788 59.1427 26.76 58.8719 27.0714 58.6971C27.3829 58.5223 27.712 58.4496 28.0588 58.479C28.4057 58.5087 28.7579 58.6457 29.1155 58.8903ZM29.5171 59.7205L28.8842 59.2875C28.5932 59.0882 28.3134 58.9793 28.0452 58.9607C27.7768 58.9421 27.5248 59.0043 27.2888 59.1475C27.0527 59.2906 26.8367 59.5054 26.6406 59.792C26.4461 60.0762 26.3249 60.3531 26.277 60.6224C26.229 60.8917 26.2596 61.1448 26.3684 61.3816C26.4772 61.6184 26.6692 61.8311 26.9443 62.0193L27.6252 62.4851L29.5171 59.7205Z" fill="#3077E0"/>
<path d="M26.9239 57.2648L23.9504 60.3248L22.1036 58.5301L22.4232 58.2014L23.8994 59.6359L24.9041 58.6019L23.5235 57.2604L23.8429 56.9317L25.2235 58.2732L26.2341 57.2332L24.734 55.7755L25.0534 55.4468L26.9239 57.2648Z" fill="#3077E0"/>
<path d="M23.7817 53.8373L24.5559 54.9023L21.1048 57.4113L20.2963 56.2991C20.0529 55.9644 19.9134 55.6279 19.8779 55.2896C19.8423 54.9515 19.9068 54.6257 20.0711 54.3121C20.2356 53.9984 20.4963 53.7118 20.8536 53.4521C21.2132 53.1907 21.5689 53.03 21.921 52.9697C22.2729 52.9095 22.6075 52.9515 22.9241 53.0956C23.241 53.2395 23.5268 53.4867 23.7817 53.8373ZM23.8814 54.7538L23.4306 54.1337C23.2232 53.8483 22.9962 53.652 22.7497 53.5444C22.5032 53.4369 22.2449 53.4109 21.9745 53.4667C21.7041 53.5224 21.4286 53.6523 21.1477 53.8566C20.8691 54.0591 20.6621 54.2792 20.5266 54.5168C20.3911 54.7544 20.3349 55.003 20.3579 55.2627C20.3811 55.5225 20.4906 55.787 20.6867 56.0567L21.1717 56.724L23.8814 54.7538Z" fill="#3077E0"/>
<path fill-rule="evenodd" clip-rule="evenodd" d="M41 81C63.0914 81 81 63.0914 81 41C81 18.9086 63.0914 1 41 1C18.9086 1 1 18.9086 1 41C1 63.0914 18.9086 81 41 81ZM41 69.4444C56.7094 69.4444 69.4444 56.7094 69.4444 41C69.4444 25.2906 56.7094 12.5556 41 12.5556C25.2906 12.5556 12.5556 25.2906 12.5556 41C12.5556 56.7094 25.2906 69.4444 41 69.4444Z" fill="white"/>
<path d="M80.5 41C80.5 62.8152 62.8152 80.5 41 80.5V81.5C63.3675 81.5 81.5 63.3675 81.5 41H80.5ZM41 1.5C62.8152 1.5 80.5 19.1848 80.5 41H81.5C81.5 18.6325 63.3675 0.5 41 0.5V1.5ZM1.5 41C1.5 19.1848 19.1848 1.5 41 1.5V0.5C18.6325 0.5 0.5 18.6325 0.5 41H1.5ZM41 80.5C19.1848 80.5 1.5 62.8152 1.5 41H0.5C0.5 63.3675 18.6325 81.5 41 81.5V80.5ZM68.9444 41C68.9444 56.4333 56.4333 68.9444 41 68.9444V69.9444C56.9856 69.9444 69.9444 56.9856 69.9444 41H68.9444ZM41 13.0556C56.4333 13.0556 68.9444 25.5667 68.9444 41H69.9444C69.9444 25.0144 56.9856 12.0556 41 12.0556V13.0556ZM13.0556 41C13.0556 25.5667 25.5667 13.0556 41 13.0556V12.0556C25.0144 12.0556 12.0556 25.0144 12.0556 41H13.0556ZM41 68.9444C25.5667 68.9444 13.0556 56.4333 13.0556 41H12.0556C12.0556 56.9856 25.0144 69.9444 41 69.9444V68.9444Z" fill="#3077E0"/>
<path d="M45.1748 4.54263L44.6256 9.79238L43.9899 9.72583L44.5393 4.47607L45.1748 4.54263Z" fill="#3077E0"/>
<path d="M50.9878 5.62306L49.8494 10.7772L49.2454 10.6438L47.3307 5.97658L47.2804 5.96549L46.3864 10.0123L45.7624 9.87454L46.9008 4.72031L47.5048 4.85378L49.4273 9.53319L49.4777 9.54428L50.3738 5.48733L50.9878 5.62306Z" fill="#3077E0"/>
<path d="M52.3332 6.63255L52.54 6.10467L56.2258 7.54902L56.019 8.07702L54.4736 7.47137L52.7547 11.8581L52.1597 11.6248L53.8787 7.23832L52.3332 6.63255Z" fill="#3077E0"/>
<path d="M55.028 12.844L57.6133 8.24198L60.3906 9.80215L60.113 10.2966L57.8929 9.04956L57.0195 10.6045L59.0957 11.7708L58.8179 12.2652L56.7417 11.0988L55.8632 12.6627L58.1193 13.9301L57.8415 14.4244L55.028 12.844Z" fill="#3077E0"/>
<path d="M58.6282 14.9415L61.8182 10.7362L63.2391 11.814C63.5677 12.0633 63.7951 12.3235 63.9213 12.5951C64.0474 12.8664 64.0875 13.1379 64.0413 13.4091C63.9952 13.6803 63.8782 13.9399 63.6902 14.1876C63.5023 14.4353 63.2849 14.6167 63.0383 14.7315C62.7915 14.8463 62.5222 14.8786 62.2302 14.8285C61.9383 14.7786 61.6294 14.63 61.3035 14.3828L60.1535 13.5106L60.5025 13.0507L61.636 13.9105C61.8605 14.0808 62.0664 14.1853 62.2539 14.224C62.4414 14.2626 62.6121 14.245 62.7664 14.1711C62.9206 14.0973 63.0616 13.9761 63.1892 13.8077C63.3169 13.6393 63.3971 13.4683 63.4297 13.2945C63.4622 13.1208 63.4356 12.9469 63.3498 12.7729C63.264 12.5989 63.1075 12.4257 62.8801 12.2535L61.9849 11.5743L59.1375 15.328L58.6282 14.9415ZM62.0406 14.554L61.6425 17.228L61.0511 16.7795L61.4657 14.1178L62.0406 14.554Z" fill="#3077E0"/>
<path d="M68.8467 17.0159L65.0502 20.6831L64.6204 20.2382L65.6029 15.2902L65.567 15.2531L62.5862 18.1324L62.1422 17.6727L65.9387 14.0055L66.3684 14.4504L65.3857 19.413L65.4215 19.4502L68.4098 16.5638L68.8467 17.0159Z" fill="#3077E0"/>
<path d="M65.8484 21.713L65.4645 21.1639L70.901 19.7282L71.2791 20.2689L68.0633 24.8817L67.6794 24.3325L70.4174 20.4939L70.3939 20.4601L65.8484 21.713ZM67.68 20.7345L69.2276 22.9483L68.763 23.2732L67.2153 21.0594L67.68 20.7345Z" fill="#3077E0"/>
<path d="M72.097 22.5003L72.5993 22.2372L74.4366 25.7437L73.9344 26.0068L73.164 24.5367L68.9909 26.7234L68.6943 26.1572L72.8674 23.9705L72.097 22.5003Z" fill="#3077E0"/>
<path d="M75.1834 27.6397L70.2846 29.6051L70.0466 29.0119L74.9455 27.0464L75.1834 27.6397Z" fill="#3077E0"/>
<path d="M74.4644 34.2495C73.9274 34.3963 73.4368 34.4261 72.9926 34.3392C72.5484 34.2522 72.1741 34.0685 71.8696 33.7885C71.5649 33.5083 71.3534 33.1511 71.2347 32.717C71.1161 32.2828 71.1165 31.8675 71.2363 31.4716C71.356 31.0755 71.5849 30.727 71.9231 30.4261C72.2613 30.1253 72.6989 29.9015 73.2358 29.7547C73.7729 29.6079 74.2634 29.5781 74.7076 29.665C75.1518 29.7519 75.526 29.9356 75.8308 30.2157C76.1353 30.4958 76.3469 30.853 76.4656 31.2872C76.5843 31.7214 76.5837 32.1366 76.464 32.5326C76.3442 32.9287 76.1152 33.2772 75.7771 33.5781C75.439 33.879 75.0014 34.1028 74.4644 34.2495ZM74.3014 33.6529C74.7422 33.5323 75.0942 33.3572 75.3574 33.1277C75.6206 32.8983 75.7961 32.6374 75.8836 32.3452C75.9712 32.0532 75.9729 31.753 75.8886 31.4447C75.8044 31.1365 75.6503 30.8789 75.4263 30.672C75.2023 30.4651 74.9186 30.3299 74.5752 30.2661C74.2318 30.2023 73.8397 30.2307 73.3989 30.3512C72.9579 30.4717 72.606 30.6468 72.3427 30.8763C72.0795 31.1058 71.9041 31.3666 71.8165 31.6588C71.729 31.9508 71.7272 32.251 71.8115 32.5593C71.8957 32.8675 72.0498 33.1251 72.2738 33.3321C72.4978 33.539 72.7815 33.6742 73.1249 33.7379C73.4684 33.8017 73.8604 33.7733 74.3014 33.6529Z" fill="#3077E0"/>
<path d="M77.7184 39.4531L72.4654 39.9699L72.4048 39.3542L76.2478 36.0862L76.2427 36.0349L72.1182 36.4405L72.0557 35.8043L77.3088 35.2876L77.3693 35.9032L73.5172 39.1826L73.5222 39.234L77.6569 38.8273L77.7184 39.4531Z" fill="#3077E0"/>
<path d="M72.4519 41.2718L72.4911 40.6028L77.647 42.8466L77.6085 43.5052L72.2257 45.1312L72.2649 44.4624L76.7929 43.1478L76.7954 43.1065L72.4519 41.2718ZM74.4958 41.6394L74.3378 44.3358L73.7717 44.3027L73.9297 41.6064L74.4958 41.6394Z" fill="#3077E0"/>
<path d="M72.0841 45.7751L77.2615 46.8028L77.1371 47.4298L72.5159 46.5124L72.0381 48.9191L71.4819 48.8087L72.0841 45.7751Z" fill="#3077E0"/>
<path d="M70.5966 51.6738L70.8559 51.0559L74.9731 54.8856L74.7178 55.4941L69.1005 55.2385L69.3599 54.6206L74.0675 54.8857L74.0835 54.8477L70.5966 51.6738ZM72.4021 52.6999L71.3569 55.1906L70.834 54.9711L71.8793 52.4805L72.4021 52.6999Z" fill="#3077E0"/>
<path d="M70.6633 60.3126C70.9029 60.4213 71.1413 60.4189 71.3785 60.3052C71.6157 60.1916 71.8172 59.9981 71.9824 59.7246C72.1033 59.5246 72.1766 59.3304 72.2021 59.1421C72.2276 58.9538 72.2089 58.7838 72.1458 58.6324C72.0827 58.4809 71.9793 58.3615 71.8352 58.2744C71.7146 58.2016 71.5938 58.168 71.4726 58.1741C71.3514 58.1802 71.2352 58.2117 71.1233 58.2687C71.0115 58.3257 70.9074 58.3932 70.811 58.4715C70.7145 58.5496 70.63 58.6239 70.5572 58.6944L70.1565 59.0785C70.0545 59.1775 69.9325 59.283 69.7906 59.3948C69.6486 59.5067 69.4907 59.6011 69.3168 59.6778C69.1431 59.7544 68.9571 59.792 68.7591 59.7908C68.5611 59.7895 68.3561 59.7249 68.1445 59.5969C67.9004 59.4494 67.7183 59.2523 67.5982 59.0061C67.4779 58.7599 67.4333 58.4799 67.4643 58.1664C67.4953 57.8527 67.6157 57.5224 67.8254 57.1754C68.021 56.8519 68.2422 56.6037 68.4893 56.4309C68.7363 56.2579 68.9938 56.1606 69.2621 56.139C69.5301 56.1173 69.7929 56.1724 70.0507 56.3041L69.7093 56.8687C69.53 56.7803 69.3542 56.7529 69.1823 56.7865C69.0104 56.8202 68.8508 56.8984 68.7033 57.021C68.5558 57.1436 68.4278 57.2948 68.3194 57.4741C68.1931 57.683 68.114 57.8911 68.0819 58.0986C68.0498 58.306 68.0659 58.4954 68.13 58.6667C68.194 58.8381 68.3085 58.9735 68.4732 59.0729C68.6232 59.1637 68.7706 59.1954 68.9154 59.1686C69.0602 59.1418 69.2032 59.0776 69.3447 58.9765C69.4863 58.8753 69.627 58.7587 69.7672 58.6264L70.2619 58.1666C70.5768 57.8751 70.8905 57.6832 71.2032 57.5913C71.5158 57.4992 71.8243 57.5451 72.1287 57.7291C72.3816 57.8819 72.5611 58.0843 72.6669 58.336C72.7728 58.5876 72.8078 58.8618 72.7721 59.1585C72.7363 59.455 72.6313 59.7474 72.4571 60.0356C72.281 60.3267 72.0727 60.5543 71.8322 60.718C71.5918 60.8818 71.3415 60.976 71.0817 61.0006C70.8218 61.0253 70.5757 60.9723 70.3434 60.8419L70.6633 60.3126Z" fill="#3077E0"/>
<path d="M67.6361 64.3058C67.8579 64.4472 68.0944 64.4783 68.3452 64.3993C68.5961 64.3203 68.8228 64.1571 69.0249 63.9096C69.1728 63.7287 69.2726 63.5468 69.3244 63.364C69.3763 63.181 69.3817 63.0101 69.3406 62.8512C69.2996 62.6923 69.2138 62.5596 69.0836 62.4531C68.9745 62.3639 68.8595 62.3138 68.7387 62.3027C68.6179 62.2916 68.4982 62.3064 68.3796 62.3471C68.261 62.3877 68.1484 62.44 68.0418 62.5038C67.9353 62.5676 67.841 62.6294 67.7591 62.6889L67.3083 63.0127C67.1933 63.0962 67.0576 63.1835 66.9013 63.2743C66.7451 63.365 66.5755 63.4361 66.3925 63.4876C66.2097 63.5389 66.0203 63.55 65.8243 63.5209C65.6285 63.4918 65.4347 63.399 65.2432 63.2424C65.0222 63.0618 64.8698 62.8413 64.7855 62.5805C64.7013 62.3196 64.6965 62.0362 64.7714 61.7302C64.8463 61.4242 65.012 61.1141 65.2685 60.8C65.5077 60.5073 65.7618 60.2928 66.0308 60.1564C66.2997 60.0201 66.5684 59.9601 66.8369 59.9763C67.1054 59.9926 67.3579 60.0842 67.5945 60.2509L67.1771 60.7619C67.0118 60.649 66.8417 60.5971 66.6668 60.6062C66.4919 60.6152 66.3229 60.67 66.1596 60.7708C65.9963 60.8715 65.8484 61.0029 65.7157 61.1653C65.5613 61.3543 65.4536 61.5493 65.3926 61.7501C65.3316 61.951 65.3208 62.1407 65.3602 62.3193C65.3995 62.4978 65.4937 62.6481 65.6427 62.7698C65.7785 62.8807 65.9199 62.9329 66.067 62.9267C66.2141 62.9204 66.3649 62.8772 66.5192 62.7969C66.6735 62.7167 66.8294 62.6209 66.9867 62.51L67.5413 62.1245C67.894 61.8801 68.2317 61.7344 68.5542 61.6874C68.8767 61.6402 69.1757 61.7292 69.4512 61.9542C69.6799 62.1412 69.829 62.3667 69.8983 62.6309C69.9676 62.895 69.9638 63.1713 69.8865 63.46C69.8092 63.7486 69.6642 64.0234 69.4512 64.2841C69.2358 64.5476 68.9976 64.7434 68.7364 64.8716C68.4752 64.9999 68.2142 65.0579 67.9535 65.0456C67.6928 65.0334 67.4566 64.9464 67.2451 64.7846L67.6361 64.3058Z" fill="#3077E0"/>
<path d="M61.9963 67.9102C61.6247 67.4958 61.3782 67.0706 61.2571 66.6345C61.136 66.1985 61.1325 65.7815 61.2465 65.3837C61.3605 64.986 61.5852 64.6367 61.9201 64.3363C62.2554 64.0356 62.6267 63.8502 63.0346 63.7798C63.4424 63.7094 63.8565 63.7581 64.2769 63.9258C64.6972 64.0933 65.0934 64.3845 65.465 64.7987C65.8368 65.2132 66.0832 65.6384 66.2044 66.0744C66.3255 66.5105 66.329 66.9274 66.2149 67.3252C66.1009 67.723 65.8763 68.0722 65.5413 68.3727C65.2062 68.6733 64.8347 68.8588 64.4269 68.9291C64.0191 68.9995 63.6049 68.951 63.1846 68.7833C62.7642 68.6156 62.3681 68.3246 61.9963 67.9102ZM62.4567 67.4972C62.762 67.8375 63.0761 68.0737 63.3993 68.2062C63.7224 68.3387 64.0342 68.3788 64.3345 68.3263C64.6349 68.274 64.9039 68.141 65.1419 67.9276C65.3798 67.7143 65.5411 67.461 65.6258 67.1681C65.7105 66.8752 65.7043 66.561 65.6077 66.2254C65.5108 65.8899 65.3099 65.552 65.0047 65.2117C64.6995 64.8715 64.3853 64.6351 64.0622 64.5027C63.739 64.3702 63.4273 64.3301 63.1269 64.3825C62.8266 64.4348 62.5575 64.5679 62.3194 64.7813C62.0816 64.9947 61.9202 65.2478 61.8357 65.5407C61.751 65.8336 61.7571 66.1479 61.8538 66.4835C61.9507 66.819 62.1516 67.1569 62.4567 67.4972Z" fill="#3077E0"/>
<path d="M57.888 71.7925L58.4272 71.4495C58.5578 71.5843 58.7 71.6853 58.8536 71.7524C59.0073 71.8196 59.166 71.8578 59.3295 71.8667C59.493 71.8756 59.6558 71.8572 59.818 71.811C59.98 71.7648 60.135 71.6948 60.2829 71.6007C60.5526 71.4292 60.7531 71.2058 60.8846 70.9309C61.0162 70.6558 61.0616 70.3448 61.0213 69.998C60.9808 69.651 60.838 69.2848 60.5927 68.899C60.3472 68.5134 60.0761 68.2287 59.7791 68.0451C59.482 67.8614 59.181 67.7708 58.8763 67.7734C58.5713 67.7759 58.2841 67.8629 58.0144 68.0343C57.8665 68.1284 57.7374 68.2391 57.6269 68.3664C57.5164 68.4935 57.4306 68.6332 57.3694 68.7853C57.3082 68.9371 57.2758 69.0973 57.272 69.2657C57.2681 69.4341 57.2992 69.6053 57.3649 69.7792L56.8257 70.1224C56.7214 69.8689 56.6658 69.6181 56.6588 69.3702C56.6516 69.1221 56.688 68.8847 56.7677 68.6578C56.8475 68.431 56.9654 68.2221 57.1219 68.0309C57.2784 67.8397 57.4689 67.6727 57.6936 67.5298C58.0736 67.2882 58.4703 67.1661 58.884 67.1635C59.2978 67.161 59.6983 67.2769 60.0855 67.5111C60.4728 67.7453 60.8158 68.0973 61.1147 68.5671C61.4135 69.0368 61.5868 69.4967 61.6348 69.9467C61.6828 70.3967 61.6179 70.8087 61.4402 71.1823C61.2625 71.556 60.9837 71.8637 60.6039 72.1052C60.3792 72.2481 60.1471 72.35 59.9077 72.4107C59.6683 72.4713 59.429 72.4896 59.1897 72.4657C58.9504 72.4417 58.7201 72.3743 58.499 72.2635C58.2779 72.1527 58.0742 71.9957 57.888 71.7925Z" fill="#3077E0"/>
<path d="M56.8609 74.0952L54.5353 69.3567L55.1092 69.0751L57.4347 73.8136L56.8609 74.0952Z" fill="#3077E0"/>
<path d="M53.307 69.9549L53.9361 69.7244L53.9321 75.3474L53.3126 75.5743L49.677 71.2848L50.3062 71.0542L53.3157 74.6838L53.3543 74.6696L53.307 69.9549ZM53.7839 71.976L51.2477 72.9052L51.0525 72.3727L53.5888 71.4436L53.7839 71.976Z" fill="#3077E0"/>
<path d="M50.9442 75.7938L51.0696 76.3467L47.2087 77.2218L47.0834 76.6687L48.7021 76.3019L47.6609 71.7071L48.2843 71.5658L49.3255 76.1605L50.9442 75.7938Z" fill="#3077E0"/>
<path d="M45.1843 77.4562L44.5424 72.217L45.1768 72.1392L45.8187 77.3785L45.1843 77.4562Z" fill="#3077E0"/>
<path d="M39.0116 75.0881C39.0026 74.5315 39.0953 74.0488 39.2897 73.6401C39.4841 73.2312 39.7548 72.9142 40.1018 72.6885C40.4487 72.4629 40.8473 72.3466 41.2973 72.3392C41.7474 72.3318 42.1495 72.4353 42.5034 72.6497C42.8576 72.8639 43.1383 73.172 43.3458 73.5742C43.5534 73.9764 43.6617 74.4559 43.6707 75.0125C43.6798 75.5691 43.5871 76.0518 43.3926 76.4605C43.1982 76.8693 42.9276 77.1864 42.5806 77.4121C42.2337 77.6377 41.8352 77.754 41.3851 77.7614C40.9351 77.7688 40.5329 77.6652 40.1789 77.451C39.8249 77.2367 39.5441 76.9286 39.3365 76.5264C39.129 76.1241 39.0207 75.6447 39.0116 75.0881ZM39.6301 75.0781C39.6376 75.535 39.7198 75.9195 39.8769 76.2314C40.034 76.5433 40.2432 76.7779 40.5044 76.9352C40.7656 77.0924 41.056 77.1686 41.3755 77.1634C41.6952 77.1583 41.9828 77.0727 42.2388 76.9072C42.4947 76.7414 42.6962 76.5003 42.843 76.1834C42.9899 75.8666 43.0597 75.4797 43.0523 75.0226C43.0449 74.5657 42.9626 74.1812 42.8056 73.8693C42.6485 73.5574 42.4393 73.3227 42.1781 73.1655C41.917 73.0082 41.6266 72.9321 41.3069 72.9373C40.9874 72.9425 40.6996 73.028 40.4438 73.1935C40.1878 73.3593 39.9864 73.6005 39.8394 73.9174C39.6925 74.234 39.6227 74.6211 39.6301 75.0781Z" fill="#3077E0"/>
<path d="M33.1319 76.9055L33.9609 71.6926L34.5717 71.7897L36.7614 76.3343L36.8123 76.3423L37.4633 72.2495L38.0944 72.3499L37.2655 77.5628L36.6546 77.4657L34.4564 72.9093L34.4053 72.9012L33.7528 77.0043L33.1319 76.9055Z" fill="#3077E0"/>
<path d="M25.9099 71.6228C26.1214 71.1079 26.3973 70.7011 26.7373 70.4025C27.0775 70.1038 27.4513 69.9194 27.8591 69.8491C28.267 69.7789 28.6791 69.8294 29.0954 70.0006C29.5118 70.1717 29.8403 70.4256 30.0809 70.7622C30.3216 71.0988 30.4577 71.4929 30.4896 71.9445C30.5215 72.3959 30.4316 72.8792 30.2199 73.3941C30.0083 73.9088 29.7324 74.3158 29.3924 74.6143C29.0524 74.9129 28.6785 75.0975 28.2707 75.1676C27.8629 75.2378 27.4508 75.1874 27.0344 75.0162C26.6181 74.8451 26.2895 74.5913 26.0489 74.2546C25.8082 73.9179 25.672 73.5238 25.6402 73.0724C25.6083 72.6208 25.6983 72.1377 25.9099 71.6228ZM26.4819 71.858C26.3082 72.2807 26.2319 72.6664 26.253 73.015C26.2742 73.3636 26.3737 73.6618 26.5514 73.9094C26.7292 74.1571 26.966 74.3418 27.2615 74.4632C27.5572 74.5847 27.8553 74.6198 28.1558 74.5688C28.4565 74.5177 28.7368 74.3756 28.9969 74.1426C29.2572 73.9097 29.474 73.5817 29.6478 73.159C29.8214 72.7362 29.8977 72.3506 29.8766 72.0019C29.8554 71.6533 29.7561 71.3551 29.5782 71.1074C29.4005 70.8598 29.1636 70.6752 28.8681 70.5537C28.5725 70.4321 28.2744 70.397 27.9738 70.4481C27.6733 70.4993 27.393 70.6412 27.1327 70.8742C26.8725 71.1073 26.6556 71.4352 26.4819 71.858Z" fill="#3077E0"/>
<path d="M26.1462 68.7261L23.4316 73.253L20.7172 71.6254L21.0088 71.1392L23.1749 72.4381L24.0921 70.9085L22.1293 69.7316L22.4208 69.2453L24.3836 70.4222L25.5978 68.3975L26.1462 68.7261Z" fill="#3077E0"/>
<path d="M16.0537 64.2946C16.4339 63.8879 16.8357 63.605 17.2594 63.4459C17.6833 63.2869 18.0981 63.2467 18.5043 63.3253C18.9107 63.4037 19.2783 63.5968 19.6072 63.9042C19.9361 64.2116 20.1536 64.5652 20.2595 64.9652C20.3655 65.3653 20.3535 65.782 20.2235 66.2154C20.0936 66.6491 19.8385 67.0691 19.4585 67.4759C19.0784 67.8827 18.6764 68.1655 18.2528 68.3246C17.829 68.4836 17.4141 68.5237 17.0078 68.4453C16.6016 68.3667 16.234 68.1737 15.9051 67.8663C15.5761 67.5591 15.3587 67.2053 15.2527 66.8053C15.1466 66.4053 15.1587 65.9884 15.2887 65.555C15.4187 65.1216 15.6736 64.7014 16.0537 64.2946ZM16.5057 64.7169C16.1937 65.0509 15.9859 65.3847 15.8823 65.7182C15.7786 66.0518 15.7662 66.3659 15.845 66.6604C15.9237 66.955 16.0798 67.2113 16.3133 67.4295C16.5467 67.6477 16.8132 67.7859 17.1123 67.8445C17.4116 67.9031 17.7241 67.8693 18.0498 67.7434C18.3755 67.6174 18.6944 67.3876 19.0064 67.0536C19.3186 66.7196 19.5263 66.3858 19.63 66.0522C19.7336 65.7187 19.746 65.4046 19.6673 65.1101C19.5887 64.8155 19.4326 64.5592 19.1991 64.341C18.9655 64.1228 18.6992 63.9845 18.4 63.9259C18.1007 63.8675 17.7882 63.9011 17.4625 64.0271C17.1366 64.1531 16.8177 64.3831 16.5057 64.7169Z" fill="#3077E0"/>
<path d="M17.2943 61.6782L13.1407 64.9354L12.0401 63.5319C11.7845 63.2062 11.634 62.8934 11.5881 62.5943C11.5423 62.2951 11.5796 62.0175 11.6998 61.7616C11.8202 61.5056 12.0027 61.2818 12.2474 61.0898C12.4923 60.8979 12.7536 60.7732 13.0316 60.7156C13.3096 60.658 13.589 60.6864 13.8694 60.8005C14.15 60.9145 14.4169 61.1331 14.6703 61.4562L15.4591 62.4623L15.0129 62.8122L14.2368 61.8225C14.0619 61.5994 13.8828 61.4505 13.6998 61.3757C13.5167 61.301 13.335 61.2845 13.1551 61.3264C12.9751 61.3682 12.8018 61.4543 12.6355 61.5848C12.4691 61.7152 12.3447 61.8626 12.2617 62.0269C12.1787 62.1913 12.1534 62.3713 12.1854 62.5665C12.2175 62.762 12.3221 62.9725 12.4991 63.1984L13.1924 64.0826L16.8998 61.1752L17.2943 61.6782Z" fill="#3077E0"/>
<path d="M14.609 58.1666L10.009 60.7552L9.69553 60.1982L11.744 59.0454L10.3637 56.5927L8.31523 57.7455L8.00167 57.1885L12.6017 54.5997L12.9152 55.1569L10.8577 56.3147L12.238 58.7674L14.2954 57.6095L14.609 58.1666Z" fill="#3077E0"/>
<path d="M7.85578 55.5233L7.3248 55.7221L5.93602 52.015L6.46701 51.816L7.04928 53.3703L11.4613 51.7177L11.6855 52.3164L7.27351 53.969L7.85578 55.5233Z" fill="#3077E0"/>
<path d="M10.6516 49.3945L5.48245 50.4627L5.35304 49.8368L7.65506 49.3611L7.08543 46.605L4.78353 47.0806L4.65412 46.4547L9.82338 45.3864L9.95267 46.0123L7.64063 46.4901L8.21026 49.2463L10.5223 48.7685L10.6516 49.3945Z" fill="#3077E0"/>
<path d="M9.69663 44.0899L9.728 44.7592L4.36481 43.07L4.33392 42.411L9.51582 40.2281L9.54719 40.8974L5.18252 42.6809L5.18443 42.722L9.69663 44.0899ZM7.62552 43.9392L7.49909 41.241L8.0655 41.2144L8.19193 43.9126L7.62552 43.9392Z" fill="#3077E0"/>
<path d="M9.58796 39.5716L4.33044 39.1031L4.38722 38.4664L9.07999 38.8846L9.29778 36.4406L9.86252 36.4909L9.58796 39.5716Z" fill="#3077E0"/>
<path d="M4.81037 34.3892L4.99953 33.6502L9.68885 32.9983L9.70412 32.9383L5.90407 30.1145L6.09311 29.3755L11.2068 30.6838L11.0587 31.2629L7.17346 30.2691L7.16069 30.3189L10.637 32.911L10.4939 33.4702L6.19986 34.0742L6.18722 34.1242L10.0724 35.1182L9.92417 35.6974L4.81037 34.3892Z" fill="#3077E0"/>
<path d="M11.0858 24.5515C11.5907 24.7862 11.9847 25.0801 12.2677 25.4332C12.5507 25.7865 12.718 26.1684 12.7698 26.5788C12.8216 26.9893 12.7524 27.3988 12.5629 27.807C12.3731 28.2153 12.1046 28.5321 11.7574 28.7572C11.4104 28.9824 11.0105 29.1007 10.5581 29.1122C10.1056 29.1236 9.62682 29.012 9.12207 28.7774C8.61732 28.5427 8.22337 28.2488 7.94023 27.8956C7.65732 27.5424 7.48999 27.1606 7.4381 26.7501C7.38634 26.3395 7.45552 25.9301 7.64504 25.5218C7.83479 25.1136 8.10327 24.7969 8.45046 24.5716C8.79754 24.3464 9.19745 24.2281 9.64984 24.2167C10.1023 24.2052 10.5811 24.3169 11.0858 24.5515ZM10.8252 25.1125C10.4108 24.9199 10.0289 24.8262 9.67977 24.8316C9.33043 24.8371 9.0282 24.923 8.77273 25.0894C8.51725 25.2559 8.32225 25.484 8.18759 25.7737C8.05294 26.0637 8.0044 26.3598 8.04173 26.6623C8.07918 26.965 8.20847 27.2514 8.42959 27.5219C8.65072 27.7922 8.96857 28.0237 9.38291 28.2164C9.79749 28.4089 10.1793 28.5025 10.5284 28.4971C10.8777 28.4916 11.1801 28.4058 11.4354 28.2394C11.6908 28.073 11.8859 27.8447 12.0206 27.555C12.1552 27.2651 12.2039 26.969 12.1664 26.6665C12.129 26.3639 11.9997 26.0774 11.7786 25.807C11.5576 25.5366 11.2398 25.305 10.8252 25.1125Z" fill="#3077E0"/>
<path d="M13.9741 24.9171L9.56569 22.0141L9.91717 21.4803L13.852 24.0714L15.2014 22.0221L15.675 22.3339L13.9741 24.9171Z" fill="#3077E0"/>
<path d="M16.9885 16.7428C17.4062 17.111 17.7006 17.5046 17.8718 17.9233C18.0431 18.3424 18.0953 18.7559 18.0284 19.1643C17.9616 19.5727 17.7793 19.9458 17.4817 20.2834C17.184 20.6212 16.8368 20.8487 16.44 20.9663C16.0433 21.0838 15.6263 21.0838 15.1892 20.9666C14.7521 20.8492 14.3247 20.6064 13.9071 20.2384C13.4895 19.8703 13.195 19.4767 13.0238 19.0578C12.8527 18.6389 12.8004 18.2253 12.8672 17.8169C12.9341 17.4085 13.1163 17.0355 13.414 16.6977C13.7117 16.36 14.0589 16.1325 14.4555 16.0149C14.8524 15.8974 15.2693 15.8974 15.7064 16.0146C16.1436 16.132 16.5709 16.3746 16.9885 16.7428ZM16.5794 17.2069C16.2366 16.9046 15.8969 16.7066 15.5605 16.6128C15.2241 16.5189 14.9098 16.5157 14.6176 16.6028C14.3255 16.6899 14.0736 16.8535 13.8624 17.0931C13.6512 17.3327 13.5205 17.6031 13.4706 17.9039C13.4209 18.2047 13.4636 18.5161 13.5988 18.8381C13.7342 19.16 13.9733 19.4721 14.3161 19.7745C14.659 20.0767 14.9987 20.2747 15.335 20.3686C15.6715 20.4624 15.9858 20.4658 16.278 20.3786C16.5701 20.2914 16.8219 20.1279 17.0332 19.8883C17.2444 19.6484 17.375 19.3783 17.4249 19.0774C17.4747 18.7767 17.432 18.4653 17.2968 18.1432C17.1614 17.8211 16.9223 17.5091 16.5794 17.2069Z" fill="#3077E0"/>
<path d="M20.1241 12.8099C19.9708 12.7109 19.8148 12.6368 19.6561 12.5873C19.4976 12.5379 19.3385 12.515 19.1787 12.5186C19.0189 12.5222 18.8607 12.5544 18.7041 12.6152C18.5475 12.676 18.3953 12.7664 18.2473 12.8867C18.0046 13.0838 17.8348 13.3259 17.7379 13.6127C17.6411 13.8994 17.6331 14.2125 17.7141 14.5519C17.7949 14.8913 17.9796 15.2384 18.2677 15.593C18.5559 15.9478 18.8583 16.199 19.1754 16.3466C19.4923 16.4942 19.8031 16.5484 20.1076 16.509C20.4121 16.4698 20.691 16.3471 20.9445 16.1413C21.1792 15.9506 21.3453 15.7321 21.443 15.4857C21.5405 15.2394 21.5647 14.9829 21.5153 14.7164C21.4659 14.4499 21.3394 14.1912 21.1357 13.9405L21.3137 13.8489L20.0814 14.85L19.7239 14.41L21.2843 13.1425L21.6417 13.5825C21.9159 13.9199 22.0824 14.2715 22.1417 14.6374C22.2009 15.0032 22.1603 15.3566 22.0199 15.6976C21.8795 16.0386 21.6467 16.3412 21.3214 16.6055C20.9586 16.9002 20.5709 17.0735 20.1581 17.1253C19.7453 17.1773 19.3348 17.1078 18.9264 16.9171C18.5181 16.7264 18.1384 16.415 17.7874 15.983C17.5241 15.6588 17.3309 15.3317 17.2075 15.0014C17.0841 14.6711 17.0283 14.3495 17.0398 14.0368C17.0515 13.7241 17.127 13.4302 17.2667 13.1551C17.4063 12.8801 17.6074 12.6358 17.8703 12.4224C18.0864 12.2469 18.3143 12.1154 18.5542 12.0278C18.794 11.9403 19.0357 11.8957 19.279 11.894C19.5222 11.8923 19.7595 11.9331 19.9909 12.0162C20.2223 12.0994 20.4375 12.2252 20.6362 12.3936L20.1241 12.8099Z" fill="#3077E0"/>
<path d="M21.4714 9.93049L24.3227 14.3723L23.7848 14.7177L20.9335 10.2757L21.4714 9.93049Z" fill="#3077E0"/>
<path d="M26.0666 8.90318C25.9206 8.68444 25.7169 8.56063 25.4555 8.53165C25.1941 8.50279 24.921 8.56063 24.636 8.70543C24.4277 8.81146 24.263 8.93765 24.1417 9.08399C24.0205 9.23057 23.9467 9.38467 23.9202 9.54663C23.8935 9.70848 23.9184 9.86461 23.9947 10.0146C24.0587 10.1402 24.1436 10.2324 24.2497 10.2914C24.3558 10.35 24.4712 10.3849 24.5962 10.3955C24.7211 10.4062 24.8451 10.4038 24.9685 10.3884C25.0917 10.3729 25.2027 10.3544 25.3017 10.3331L25.8451 10.2187C25.9839 10.1885 26.1433 10.1636 26.3229 10.1435C26.5026 10.1234 26.6864 10.1268 26.8745 10.1536C27.0626 10.1804 27.2403 10.2465 27.4079 10.3523C27.5752 10.458 27.7151 10.621 27.8273 10.8415C27.9566 11.0959 28.0072 11.3594 27.9789 11.6319C27.9509 11.9045 27.8408 12.1658 27.6488 12.4155C27.4569 12.6655 27.1801 12.8824 26.8187 13.0662C26.4817 13.2374 26.1627 13.3313 25.8617 13.3475C25.5606 13.3637 25.2905 13.3102 25.0513 13.187C24.8123 13.0638 24.6182 12.8781 24.469 12.6301L25.0572 12.331C25.1629 12.5009 25.2975 12.6169 25.4613 12.6792C25.6249 12.7415 25.8018 12.7595 25.9918 12.7333C26.1818 12.707 26.3702 12.6463 26.557 12.5514C26.7745 12.4408 26.9518 12.3059 27.0886 12.1466C27.2254 11.9875 27.3119 11.8181 27.348 11.6389C27.384 11.4596 27.3585 11.2841 27.2712 11.1126C27.1918 10.9564 27.0835 10.8516 26.9462 10.7978C26.8091 10.7442 26.6537 10.723 26.4802 10.7342C26.3065 10.7454 26.1254 10.77 25.9366 10.808L25.2734 10.9371C24.8522 11.0184 24.4845 11.0154 24.1703 10.9285C23.8561 10.8415 23.6186 10.6394 23.4573 10.3224C23.3234 10.0589 23.2779 9.79245 23.321 9.52278C23.364 9.25311 23.4793 9.00193 23.6664 8.76888C23.8534 8.53607 24.0971 8.34333 24.3973 8.19054C24.7006 8.03633 24.9976 7.95332 25.2883 7.94127C25.5791 7.92922 25.8413 7.98158 26.0749 8.09787C26.3086 8.21416 26.4896 8.38913 26.6179 8.62265L26.0666 8.90318Z" fill="#3077E0"/>
<path d="M27.5012 7.42429L27.3188 6.88734L31.0674 5.61402L31.2497 6.15097L29.678 6.68482L31.1934 11.1459L30.5883 11.3514L29.0728 6.89044L27.5012 7.42429Z" fill="#3077E0"/>
<path d="M35.6691 6.00609C35.5909 5.75515 35.4303 5.57875 35.1877 5.47725C34.945 5.37563 34.6666 5.35416 34.3525 5.41272C34.1226 5.45554 33.9291 5.53009 33.7715 5.63647C33.614 5.74286 33.4996 5.86976 33.4284 6.01766C33.3572 6.16555 33.337 6.32227 33.3679 6.4877C33.3938 6.62629 33.4493 6.73864 33.5344 6.82499C33.6196 6.91134 33.7206 6.9773 33.8375 7.02274C33.9542 7.0683 34.074 7.10098 34.1966 7.1209C34.3192 7.14094 34.4311 7.15453 34.5321 7.16193L35.0856 7.20558C35.2273 7.21584 35.3871 7.23671 35.5652 7.26808C35.7432 7.29956 35.9186 7.35467 36.0915 7.43338C36.2644 7.5121 36.4163 7.62577 36.547 7.77438C36.6778 7.92299 36.766 8.11894 36.8115 8.36225C36.8637 8.64266 36.8379 8.90958 36.7341 9.16327C36.6302 9.41683 36.4509 9.63641 36.1963 9.82199C35.9415 10.0075 35.6149 10.1375 35.2163 10.2119C34.8447 10.2812 34.5122 10.2812 34.2188 10.2118C33.9253 10.1425 33.6812 10.015 33.4866 9.82927C33.2921 9.64356 33.1582 9.41063 33.085 9.13083L33.7336 9.00977C33.7869 9.20263 33.8835 9.35195 34.0229 9.45786C34.1625 9.56389 34.3271 9.63104 34.5168 9.65943C34.7065 9.68781 34.9043 9.68268 35.1106 9.64428C35.3504 9.59955 35.5584 9.52012 35.7346 9.40598C35.9107 9.29184 36.0415 9.15396 36.1266 8.992C36.2119 8.83027 36.2368 8.6547 36.2015 8.46554C36.1693 8.2932 36.095 8.162 35.9786 8.07183C35.8622 7.98167 35.7191 7.9175 35.5494 7.87921C35.3796 7.84105 35.1989 7.8135 35.007 7.79692L34.3345 7.7337C33.9074 7.69268 33.5554 7.58629 33.2786 7.41406C33.0018 7.24196 32.8307 6.98112 32.7655 6.63142C32.7113 6.34088 32.7429 6.0724 32.8604 5.82587C32.9778 5.57934 33.1592 5.37086 33.4044 5.20007C33.6496 5.02927 33.9378 4.91311 34.2688 4.85132C34.6033 4.78895 34.9116 4.79312 35.1939 4.86373C35.4762 4.93422 35.7131 5.05826 35.9044 5.23573C36.0957 5.41344 36.22 5.63218 36.2773 5.89243L35.6691 6.00609Z" fill="#3077E0"/>
</svg>
