<svg width="166" height="166" viewBox="0 0 166 166" fill="none" xmlns="http://www.w3.org/2000/svg">
<path opacity="0.4" d="M158 83C158 92.8491 156.06 102.602 152.291 111.701C148.522 120.801 142.997 129.069 136.033 136.033C129.069 142.997 120.801 148.522 111.701 152.291C102.602 156.06 92.8491 158 83 158C73.1509 158 63.3982 156.06 54.2987 152.291C45.1993 148.522 36.9314 142.997 29.967 136.033C23.0026 129.069 17.4781 120.801 13.709 111.701C9.93993 102.602 8 92.8491 8 83C8 73.1509 9.93993 63.3982 13.709 54.2987C17.4781 45.1993 23.0026 36.9314 29.967 29.967C36.9314 23.0026 45.1993 17.4781 54.2988 13.709C63.3982 9.93993 73.1509 8 83 8C92.8492 8 102.602 9.93993 111.701 13.709C120.801 17.4781 129.069 23.0026 136.033 29.967C142.997 36.9314 148.522 45.1993 152.291 54.2988C156.06 63.3982 158 73.1509 158 83L158 83Z" stroke="#DC3030" stroke-width="10" stroke-linecap="round" stroke-linejoin="round"/>
<path d="M57.7835 19.3103C73.2926 13.1698 90.5093 12.8994 106.204 18.5497C121.898 24.1999 134.991 35.3827 143.027 49.9998C144.756 53.1456 148.709 54.2938 151.854 52.5644C155 50.835 156.148 46.8828 154.419 43.737C144.858 26.3458 129.28 13.0408 110.607 6.31821C91.9344 -0.40439 71.4503 -0.0825996 52.9979 7.22321C34.5455 14.529 19.393 28.3168 10.3831 45.9997C1.37315 63.6827 -0.874933 84.0456 4.06058 103.268C8.99609 122.491 20.776 139.252 37.1903 150.407C53.6046 161.562 73.5252 166.345 93.2147 163.857C112.904 161.37 131.01 151.783 144.134 136.897C157.258 122.01 164.5 102.846 164.5 82.9999C164.5 79.4101 161.59 76.4999 158 76.4999C154.41 76.4999 151.5 79.4101 151.5 82.9999C151.5 99.6803 145.414 115.788 134.383 128.3C123.352 140.812 108.134 148.869 91.5854 150.96C75.0365 153.05 58.2934 149.031 44.4974 139.655C30.7013 130.279 20.8004 116.191 16.6522 100.035C12.5039 83.8788 14.3934 66.7639 21.9661 51.9016C29.5389 37.0392 42.2745 25.4508 57.7835 19.3103Z" fill="#59C112" stroke="white" stroke-width="3" stroke-linecap="round" stroke-linejoin="round"/>
</svg>
