<svg width="22" height="36" viewBox="0 0 22 36" fill="none" xmlns="http://www.w3.org/2000/svg">
<path d="M21.0352 13.0577C20.8837 12.9441 20.6994 12.8827 20.51 12.8827H13.8061L20.4401 1.31277C20.6818 0.89416 20.5384 0.35896 20.1197 0.117247C19.9882 0.0413364 19.8393 0.000931596 19.6874 0L10.3755 0C10.2096 0.0012562 10.0474 0.049643 9.90797 0.13952C9.76852 0.229397 9.65748 0.357061 9.5878 0.507632L0.696004 19.149C0.493017 19.5876 0.684025 20.1078 1.12265 20.3108C1.23588 20.3632 1.35895 20.3908 1.48367 20.3917H8.17001L3.3565 34.9197C3.31567 35.1165 3.34384 35.3214 3.43629 35.4999C3.52873 35.6784 3.67981 35.8197 3.86413 35.8999C4.04726 35.9959 4.25848 36.024 4.46033 35.9791C4.66218 35.9343 4.84163 35.8194 4.96685 35.6548L21.2102 14.2829C21.5002 13.8962 21.4218 13.3477 21.0352 13.0577ZM6.75222 30.4737L10.2879 19.7265C10.4426 19.2686 10.1968 18.772 9.73885 18.6173C9.65066 18.5875 9.5583 18.572 9.46522 18.5713H2.93641L10.918 1.66279H18.1996L11.5482 13.3202C11.3065 13.7388 11.4499 14.274 11.8685 14.5157C12 14.5916 12.149 14.632 12.3008 14.633H18.7596L6.75222 30.4737Z" fill="#3077E0"/>
</svg>
