<svg width="122" height="80" viewBox="0 0 122 80" fill="none" xmlns="http://www.w3.org/2000/svg">
<path d="M15.2048 73.423C15.2051 73.4237 15.2054 73.4243 15.2061 73.4246C15.3392 73.5382 20.2238 77.3161 26.6268 76.5045C25.4604 78.6814 23.7507 79.4191 23.7507 79.4191C19.4013 78.2803 15.6477 76.1581 15.0869 75.7943C2.61175 68.0123 -8.28473 45.252 8.83814 27.2263C12.053 23.8421 16.7641 21.1254 21.5752 18.351C29.7975 13.6094 38.3124 8.69917 40.1523 0L40.1648 0.0207613C42.4019 3.72708 44.9529 7.95349 46.1915 12.1076C50.0471 25.046 48.6572 35.7267 42.3119 44.2991C41.3312 45.6245 39.7109 47.4365 38.6047 48.6735L38.4333 48.8652C37.8348 48.8997 37.1993 48.9227 36.5332 48.9469H36.5328C32.8974 49.0785 28.3479 49.2432 23.8991 51.4964C18.215 54.3756 13.4812 59.8025 13.4995 67.9583C12.7453 66.8884 12.1773 65.7534 11.7452 64.5146C10.5987 61.2303 10.4636 57.2325 11.4823 53.9418C14.4052 44.5007 20.5013 39.9705 26.0375 35.8563C31.3264 31.9259 36.1044 28.3752 37.1167 21.2852C35.6737 28.0035 29.1069 32.3851 23.5206 36.1127L23.5202 36.1129C22.9219 36.5121 22.3348 36.9039 21.7664 37.2902C16.1739 41.0902 6.36 51.2847 9.71716 64.6421C10.6921 68.5206 12.2152 70.9117 15.2048 73.423Z" fill="#89B117"/>
<path d="M114.949 18.7868H49.9478C50.0161 19.2096 50.075 19.6293 50.1247 20.0489H114.949C118.031 20.0489 120.536 22.5953 120.536 25.7285V73.0583C120.536 76.1884 118.031 78.7379 114.949 78.7379H27.7954C27.4291 79.2364 27.0505 79.6561 26.6842 80H114.949C118.714 80 121.778 76.8857 121.778 73.0583V25.7285C121.778 21.9011 118.714 18.7868 114.949 18.7868Z" fill="#89B117"/>
<path d="M114.949 21.4688H50.2892C50.3016 21.5761 50.3109 21.6802 50.3172 21.7843H114.949C117.091 21.7843 118.829 23.5513 118.829 25.7285V73.0583C118.829 75.2323 117.091 77.0024 114.949 77.0024H28.8321L28.6645 77.318H114.949C117.261 77.318 119.139 75.4062 119.139 73.0583V25.7285C119.139 23.3778 117.262 21.4688 114.949 21.4688Z" fill="#89B117"/>
<path d="M39.6839 51.657C39.6775 51.6564 39.6713 51.6559 39.6652 51.6556L39.6553 51.655C39.6448 51.6545 39.6343 51.6539 39.623 51.6526C35.5361 51.1793 33.3107 51.1721 29.8899 51.7608C27.1045 52.2404 18.6203 53.7298 15.4128 63.2484C13.574 68.7049 16.5435 72.3266 18.9822 72.596L18.9718 72.587C17.7919 71.5568 16.5283 70.4537 16.9538 68.6554C17.7456 65.2972 23.2237 66.2589 23.2237 66.2589C23.9397 66.3445 24.6699 66.4434 25.4053 66.5431C28.6464 66.9822 31.9907 67.4354 34.686 66.8243C39.0581 65.8339 45.6054 62.1911 48.6448 52.0738C45.9642 52.4851 43.1377 52.1124 40.132 51.716C39.9831 51.6964 39.8337 51.6767 39.6839 51.657Z" fill="#89B117"/>
<path d="M82.1958 56.8653C84.8432 56.8653 86.6989 55.155 86.6989 51.8852V46.9302H82.1958V49.2442H83.9277V52.0361C83.9277 53.2685 83.4082 54.3249 82.1958 54.3249C81.5278 54.3249 81.1319 54.0483 80.8845 53.6458C80.3401 52.7907 80.2659 50.9797 80.2659 47.7099C80.2659 44.4401 80.3401 42.6292 80.8845 41.774C81.1319 41.3716 81.5278 41.0949 82.1958 41.0949C83.7051 41.0949 83.903 42.5286 83.9277 43.5095H86.6989C86.6494 41.9752 86.204 40.6673 85.338 39.7618C84.5958 39.0073 83.5566 38.5545 82.1958 38.5545C80.5628 38.5545 79.4989 39.2085 78.7814 40.0888C77.6185 41.4973 77.4948 43.4592 77.4948 47.7099C77.4948 51.9606 77.6185 53.9225 78.7814 55.331C79.4989 56.2113 80.5628 56.8653 82.1958 56.8653Z" fill="#89B117"/>
<path d="M66.5833 38.7558L62.6988 56.6641H59.8287L55.969 38.7558H59.0122L61.2638 52.3379L63.5401 38.7558H66.5833Z" fill="#89B117"/>
<path d="M75.5529 56.6641H68.155V38.7558H75.5529V41.2961H70.9262V46.3769H74.9096V48.9172H70.9262V54.1237H75.5529V56.6641Z" fill="#89B117"/>
<path fill-rule="evenodd" clip-rule="evenodd" d="M98.9292 56.6641H96.0344L95.3168 53.1176H91.2344L90.5416 56.6641H87.622L91.9519 38.7558H94.6488L98.9292 56.6641ZM94.7973 50.5773L93.288 43.0819L91.7787 50.5773H94.7973Z" fill="#89B117"/>
<path d="M107.484 56.6641H109.934V38.7558H107.163V49.3951L103.031 38.7558H100.557V56.6641H103.328V46.0247L107.484 56.6641Z" fill="#89B117"/>
<path fill-rule="evenodd" clip-rule="evenodd" d="M68.6148 69.1617C69.512 68.2497 69.5372 67.2221 69.5372 65.4751C69.5372 63.7282 69.512 62.7005 68.6148 61.7885C68.0083 61.1719 67.2501 60.8251 66.214 60.8251C65.1778 60.8251 64.4071 61.1719 63.8005 61.7885C62.9034 62.7005 62.8907 63.7282 62.8907 65.4751C62.8907 67.2221 62.9034 68.2497 63.8005 69.1617C64.4071 69.7783 65.1778 70.1251 66.214 70.1251C67.2501 70.1251 68.0083 69.7783 68.6148 69.1617ZM67.3386 62.9061C67.6671 63.2914 67.7808 63.7282 67.7808 65.4751C67.7808 67.2221 67.6671 67.646 67.3386 68.0313C67.0859 68.3268 66.6942 68.5323 66.214 68.5323C65.7338 68.5323 65.3421 68.3268 65.0768 68.0313C64.7482 67.646 64.6471 67.2221 64.6471 65.4751C64.6471 63.7282 64.7482 63.2914 65.0768 62.9061C65.3421 62.6106 65.7338 62.4179 66.214 62.4179C66.6942 62.4179 67.0859 62.6106 67.3386 62.9061Z" fill="#89B117"/>
<path d="M57.744 62.495H61.9138V60.9022H55.9876V70.048H57.744V66.3358H61.2947V64.7429H57.744V62.495Z" fill="#89B117"/>
<path fill-rule="evenodd" clip-rule="evenodd" d="M78.1367 70.048H76.1023L74.3459 66.4H73.0823V70.048H71.3259V60.9022H74.8513C76.6835 60.9022 77.7702 62.1739 77.7702 63.7025C77.7702 64.987 76.9994 65.7834 76.1275 66.1045L78.1367 70.048ZM76.0138 63.7025C76.0138 62.996 75.5084 62.495 74.7376 62.495H73.0823V64.9099H74.7376C75.5084 64.9099 76.0138 64.409 76.0138 63.7025Z" fill="#89B117"/>
<path d="M85.9873 70.048H87.7437V60.9022H86.0126L83.6749 65.8476L81.3246 60.9022H79.5935V70.048H81.3499V64.7172L83.081 68.1855H84.2688L85.9873 64.7172V70.048Z" fill="#89B117"/>
<path d="M96.3177 66.9138C96.3177 68.8534 94.852 70.1251 93.0071 70.1251C91.1623 70.1251 89.6965 68.8534 89.6965 66.9138V60.9022H91.4529V66.8496C91.4529 67.9029 92.0594 68.5323 93.0071 68.5323C93.9548 68.5323 94.574 67.9029 94.574 66.8496V60.9022H96.3177V66.9138Z" fill="#89B117"/>
<path d="M98.2759 70.048H104.114V68.4552H100.032V60.9022H98.2759V70.048Z" fill="#89B117"/>
<path fill-rule="evenodd" clip-rule="evenodd" d="M112.494 70.048H110.662L110.131 68.4295H106.934L106.391 70.048H104.558L107.831 60.9022H109.208L112.494 70.048ZM109.663 66.9266L108.564 63.5997L107.427 66.9266H109.663Z" fill="#89B117"/>
<path fill-rule="evenodd" clip-rule="evenodd" d="M79.5989 33.8187C80.679 33.8187 81.6102 33.0993 81.6102 31.8119V28.9721C81.6102 27.6848 80.679 26.9654 79.5989 26.9654C78.5187 26.9654 77.5782 27.6848 77.5782 28.9721V31.8119C77.5782 33.0993 78.5187 33.8187 79.5989 33.8187ZM80.3997 28.9911V31.8025C80.3997 32.3704 80.0831 32.7112 79.5989 32.7112C79.1146 32.7112 78.7887 32.3704 78.7887 31.8025V28.9911C78.7887 28.4231 79.1146 28.0729 79.5989 28.0729C80.0831 28.0729 80.3997 28.4231 80.3997 28.9911Z" fill="#89B117"/>
<path d="M74.3195 33.7619H75.53V27.0222H74.3195L72.9693 28.2149V29.5401L74.3195 28.3474V33.7619Z" fill="#89B117"/>
<path fill-rule="evenodd" clip-rule="evenodd" d="M86.6661 31.8119C86.6661 33.0993 85.7349 33.8187 84.6548 33.8187C83.5746 33.8187 82.6342 33.0993 82.6342 31.8119V28.9721C82.6342 27.6848 83.5746 26.9654 84.6548 26.9654C85.7349 26.9654 86.6661 27.6848 86.6661 28.9721V31.8119ZM85.4556 31.8025V28.9911C85.4556 28.4231 85.139 28.0729 84.6548 28.0729C84.1706 28.0729 83.8447 28.4231 83.8447 28.9911V31.8025C83.8447 32.3704 84.1706 32.7112 84.6548 32.7112C85.139 32.7112 85.4556 32.3704 85.4556 31.8025Z" fill="#89B117"/>
<path fill-rule="evenodd" clip-rule="evenodd" d="M89.0217 30.4962C89.748 30.4962 90.3625 30.0513 90.3625 29.1993V28.2622C90.3625 27.4103 89.748 26.9654 89.0217 26.9654C88.286 26.9654 87.6622 27.4103 87.6622 28.2622V29.1993C87.6622 30.0513 88.286 30.4962 89.0217 30.4962ZM89.4872 28.3001V29.1615C89.4872 29.5306 89.3196 29.701 89.0217 29.701C88.7144 29.701 88.5468 29.5306 88.5468 29.1615V28.3001C88.5468 27.9309 88.7144 27.7605 89.0217 27.7605C89.3196 27.7605 89.4872 27.9309 89.4872 28.3001Z" fill="#89B117"/>
<path fill-rule="evenodd" clip-rule="evenodd" d="M93.2398 33.8187C93.9755 33.8187 94.59 33.3833 94.59 32.5219V31.5847C94.59 30.7328 93.9755 30.2879 93.2398 30.2879C92.5042 30.2879 91.8896 30.7328 91.8896 31.5847V32.5219C91.8896 33.3833 92.5042 33.8187 93.2398 33.8187ZM93.7147 31.6226V32.4935C93.7147 32.8532 93.5471 33.0236 93.2398 33.0236C92.9325 33.0236 92.7649 32.8532 92.7649 32.4935V31.6226C92.7649 31.2629 92.9325 31.083 93.2398 31.083C93.5471 31.083 93.7147 31.2629 93.7147 31.6226Z" fill="#89B117"/>
<path d="M90.0366 33.7619L93.1746 27.0222H92.2249L89.0868 33.7619H90.0366Z" fill="#89B117"/>
</svg>
