<svg width="95" height="95" viewBox="0 0 95 95" fill="none" xmlns="http://www.w3.org/2000/svg">
<g clip-path="url(#clip0_1_214)">
<mask id="mask0_1_214" style="mask-type:luminance" maskUnits="userSpaceOnUse" x="0" y="0" width="95" height="95">
<path d="M94.4997 94.5V0.500275H0.499999V94.5H94.4997Z" fill="white" stroke="white" stroke-width="0.999997"/>
</mask>
<g mask="url(#mask0_1_214)">
<path d="M47.5026 14.8252C51.2003 14.8252 54.2168 11.8088 54.2168 8.10564C54.2168 4.40788 51.2003 1.39146 47.5026 1.39146C43.7996 1.39146 40.7832 4.40788 40.7832 8.10564C40.7832 11.8088 43.7996 14.8252 47.5026 14.8252Z" stroke="#3E3E3E" stroke-width="2" stroke-miterlimit="10" stroke-linecap="round" stroke-linejoin="round"/>
<path d="M47.5026 14.8252C51.2003 14.8252 54.2168 11.8088 54.2168 8.10564C54.2168 4.40788 51.2003 1.39146 47.5026 1.39146C43.7996 1.39146 40.7832 4.40788 40.7832 8.10564C40.7832 11.8088 43.7996 14.8252 47.5026 14.8252Z" stroke="#3E3E3E" stroke-width="2" stroke-miterlimit="10" stroke-linecap="round" stroke-linejoin="round"/>
<path d="M37.3246 74.1416L36.6796 74.334C25.5762 77.5898 26.507 87.8043 32.3109 90.6595C36.5495 92.745 40.5178 92.2094 37.2259 87.6275C35.5719 85.3338 33.4917 81.3395 39.6441 79.5191L47.5025 77.1894M25.5865 32.8208C22.3725 37.361 20.5677 45.2456 29.9031 49.2918L53.5456 59.5532C63.1305 63.7085 59.9737 67.495 53.4313 69.4141L47.5025 71.1562L57.6751 74.1416C69.8447 69.955 69.7824 59.8911 54.7312 53.2964L35.9411 45.0583C31.1513 42.9572 27.3964 39.561 33.866 37.3765C35.6291 36.7837 36.7473 35.6968 37.3713 34.5683C38.3907 32.7063 39.0303 29.2581 37.7562 27.7812C36.6848 26.538 34.4486 26.6993 32.3007 27.5315C29.6847 28.5457 27.1934 30.5427 25.5865 32.8208Z" stroke="#3E3E3E" stroke-width="2" stroke-miterlimit="10" stroke-linecap="round" stroke-linejoin="round"/>
<path d="M50.5811 48.7717V14.0768M50.5811 70.2513V58.2685M44.4182 78.1045V90.5241C44.4182 92.2196 45.807 93.6082 47.5024 93.6082C49.1977 93.6082 50.5811 92.2196 50.5811 90.5241V78.1045M44.4182 58.2685V70.2513M44.4182 14.0768V48.7717" stroke="#3E3E3E" stroke-width="2" stroke-miterlimit="10" stroke-linecap="round" stroke-linejoin="round"/>
<path d="M47.5025 50.1241L59.0584 45.0584C63.8534 42.9572 67.6083 39.561 61.1335 37.3767C59.3756 36.7839 58.2524 35.6968 57.6282 34.5683C56.609 32.7064 55.9692 29.2582 57.2434 27.7812C58.3201 26.5382 60.5511 26.6993 62.7042 27.5315C65.315 28.5457 67.8061 30.5429 69.4131 32.8208C72.6272 37.3612 74.4318 45.2456 65.1018 49.292L55.2985 53.5462M31.9367 58.5754C33.8194 56.8331 36.4664 55.1532 39.9198 53.6399M47.5025 56.9268L41.4539 59.5532C31.869 63.7087 35.026 67.495 41.5686 69.4141L58.3201 74.334C69.4235 77.5898 68.4927 87.8043 62.6886 90.6597C58.45 92.7451 54.4819 92.2094 57.7738 87.6275C59.4278 85.334 61.5079 81.3395 55.3608 79.5193L38.4533 74.5057C31.3543 72.3994 27.8333 68.5248 28.4627 64.3379" stroke="#3E3E3E" stroke-width="2" stroke-miterlimit="10" stroke-linecap="round" stroke-linejoin="round"/>
<path d="M44.4184 20.2651C37.278 19.5319 34.0066 14.5754 33.4917 13.8681C26.4966 4.15285 17.7181 9.58268 4.77323 4.53248C3.04153 3.85635 2.46429 3.73685 2.41735 5.58304C2.22494 12.7707 7.88336 15.8027 17.619 15.985" stroke="#3E3E3E" stroke-width="2" stroke-miterlimit="10" stroke-linecap="round" stroke-linejoin="round"/>
<path d="M8.05475 14.3378C6.84313 22.191 12.0958 25.4468 21.7484 25.6237" stroke="#3E3E3E" stroke-width="2" stroke-miterlimit="10" stroke-linecap="round" stroke-linejoin="round"/>
<path d="M37.5845 34.6307C39.8764 34.3211 42.1559 33.9256 44.4182 33.4448M12.8551 24.0417C11.768 31.042 18.6851 34.7244 23.5633 35.1611" stroke="#3E3E3E" stroke-width="2" stroke-miterlimit="10" stroke-linecap="round" stroke-linejoin="round"/>
<path d="M81.4994 6.72211C84.1881 6.36846 87.0851 5.75987 90.2316 4.53248C91.9634 3.85653 92.5355 3.73686 92.5821 5.58304C92.7747 12.7709 87.1161 15.8027 77.3804 15.985M50.5811 20.2651C57.7218 19.5319 60.9982 14.5754 61.5079 13.8682C65.3771 8.49575 69.7925 7.75189 75.1546 7.30992" stroke="#3E3E3E" stroke-width="2" stroke-miterlimit="10" stroke-linecap="round" stroke-linejoin="round"/>
<path d="M86.9447 14.3378C88.1617 22.191 82.9039 25.4468 73.2512 25.6237" stroke="#3E3E3E" stroke-width="2" stroke-miterlimit="10" stroke-linecap="round" stroke-linejoin="round"/>
<path d="M57.3734 34.6253C55.2931 34.3444 53.0255 33.9595 50.5813 33.4448M82.1444 24.0415C83.2313 31.042 76.3143 34.6878 71.4361 35.1611" stroke="#3E3E3E" stroke-width="2" stroke-miterlimit="10" stroke-linecap="round" stroke-linejoin="round"/>
</g>
</g>
<defs>
<clipPath id="clip0_1_214">
<rect width="95" height="95" fill="white"/>
</clipPath>
</defs>
</svg>
