<svg id="layer_02" data-name="layer_02" fill="#fff" xmlns="http://www.w3.org/2000/svg" viewBox="0 0 512 512">
    <path d="M495.53,163.53C511.81,82.13,512,17.7,512,15A15,15,0,0,0,497,0c-2.7,0-67.13.19-148.53,16.47a724.41,724.41,0,0,0-82.2,21.31l-.52.17q-25,8.16-47.64,17.86a457,457,0,0,0-51.67,26,15.13,15.13,0,0,0-1.41.85C139.39,97.86,117,115,98.17,133.8A198,198,0,0,0,88,402.83L4.39,486.39A15,15,0,1,0,25.6,507.6L109.17,424a198,198,0,0,0,269-10.21C397,395,414.14,372.6,429.36,347a15.13,15.13,0,0,0,.85-1.41,456.87,456.87,0,0,0,26-51.67q9.71-22.65,17.88-47.7l.14-.43a725,725,0,0,0,21.32-82.23ZM353.78,46A855.88,855.88,0,0,1,481.57,30.43,855.75,855.75,0,0,1,466,158.22a701.73,701.73,0,0,1-17.22,68.24h-142L394,139.21A15,15,0,0,0,372.78,118l-87.25,87.25v-142A701.73,701.73,0,0,1,353.78,46Zm54.4,277.52H209.69l67.05-67.05H438.67a470,470,0,0,1-30.49,67.06ZM255.53,73.33V235.25L188.48,302.3V103.82a470,470,0,0,1,67.06-30.49ZM70.17,273.82A166.91,166.91,0,0,1,119.38,155a288.09,288.09,0,0,1,39.09-32.48V332.3l-49.23,49.24A166.73,166.73,0,0,1,70.17,273.82ZM357,392.63a168,168,0,0,1-226.53,10.13l49.23-49.23H389.47A288.16,288.16,0,0,1,357,392.63Zm0,0"/>
</svg>