<svg width="55" height="40" viewBox="0 0 55 40" fill="none" xmlns="http://www.w3.org/2000/svg">
<g clip-path="url(#clip0_1709_2)">
<path d="M39.0002 5.32023C35.9575 4.22562 32.1138 4.31437 28.5267 4.25328C27.0536 4.22812 25.5365 4.17969 24.0491 4.17969C17.8364 4.17969 12.1194 5.02391 11.0525 11.9073C9.64699 20.9761 16.5352 22.015 21.5906 25.1105C22.6484 25.7582 26.1214 28.0776 26.4006 30.728C26.5109 31.7751 26.1208 32.7293 25.2413 33.5641C24.2 34.5522 24.2968 35.8937 25.5878 37.8203C25.7471 35.7458 26.717 34.7412 27.5931 33.8338C28.3936 33.0048 29.026 32.35 29.0214 30.9329C29.0053 25.8772 32.5714 25.0351 36.02 24.2206C37.7266 23.8177 39.4914 23.4009 40.9589 22.4959C44.6321 20.231 45.8003 15.1484 44.7761 11.7382C43.7791 8.41852 41.9437 6.37914 39.0002 5.32023V5.32023ZM15.0202 10.7857C14.7182 10.7857 14.4733 10.5409 14.4733 10.2388C14.4733 9.9368 14.7182 9.69195 15.0202 9.69195H21.1042C21.4062 9.69195 21.651 9.9368 21.651 10.2388C21.651 10.5409 21.4062 10.7857 21.1042 10.7857H15.0202ZM23.7985 21.3284H19.4528C19.1508 21.3284 18.906 21.0835 18.906 20.7815C18.906 20.4795 19.1508 20.2346 19.4528 20.2346H23.7985C24.1006 20.2346 24.3454 20.4795 24.3454 20.7815C24.3454 21.0835 24.1006 21.3284 23.7985 21.3284ZM25.5368 8.53891H21.191C20.889 8.53891 20.6442 8.29406 20.6442 7.99203C20.6442 7.69 20.889 7.44516 21.191 7.44516H25.5368C25.8388 7.44516 26.0836 7.69 26.0836 7.99203C26.0836 8.29398 25.8389 8.53891 25.5368 8.53891ZM28.0573 18.5631C27.7553 18.5631 27.5104 18.3183 27.5104 18.0163C27.5104 17.7142 27.7553 17.4694 28.0573 17.4694H33.6198C33.9218 17.4694 34.1667 17.7142 34.1667 18.0163C34.1667 18.3183 33.9218 18.5631 33.6198 18.5631H28.0573ZM38.5739 21.242H34.2282C33.9261 21.242 33.6813 20.9971 33.6813 20.6951C33.6813 20.393 33.9261 20.1482 34.2282 20.1482H38.5739C38.8759 20.1482 39.1207 20.393 39.1207 20.6951C39.1207 20.9971 38.8759 21.242 38.5739 21.242Z" fill="white"/>
</g>
<defs>
<clipPath id="clip0_1709_2">
<rect width="55" height="40" fill="white"/>
</clipPath>
</defs>
</svg>
